<svg id="kity_svg_6" xmlns="http://www.w3.org/2000/svg" xmlns:xlink="http://www.w3.org/1999/xlink" version="1.1" width="2349" height="687" style="background: rgb(251, 251, 251); visibility: visible;" viewBox="0 0 2349 687"><defs id="kity_defs_7"><linearGradient id="kity_linearGradient_17" x1="0" y1="0" x2="0" y2="1"><stop id="kity_stop_18" offset="0" stop-color="rgb(255, 255, 255)"></stop><stop id="kity_stop_19" offset="1" stop-color="rgb(204, 204, 204)"></stop></linearGradient><marker id="kity_marker_2" orient="auto" refX="6" refY="0" viewBox="-7 -7 14 14" markerWidth="7" markerHeight="7" markerUnits="userSpaceOnUse"><path id="kity_path_3" fill="rgb(115, 161, 191)" stroke="none" d="M6,0A6,6,0,1,1,-6,0A6,6,0,1,1,6,0"></path></marker></defs><g id="kity_g_8"><g id="minder1" text-rendering="optimize-speed"><g id="minder_connect_group1"><path id="kity_path_31" fill="none" stroke="rgb(115, 161, 191)" stroke-width="1" d="M1067.5,317.5A166,218,0,0,1,1233.5,99.5"></path><path id="kity_path_39" fill="none" stroke="rgb(115, 161, 191)" stroke-width="1" d="M1067.5,317.5A166,152,0,0,1,1233.5,165.5"></path><path id="kity_path_47" fill="none" stroke="rgb(115, 161, 191)" stroke-width="1" d="M1345.5,99.5C1360.5,99.5,1360.5,113.5,1375.5,113.5L1483.5,113.5"></path><path id="kity_path_63" fill="none" stroke="rgb(115, 161, 191)" stroke-width="1" d="M1345.5,165.5C1360.5,165.5,1360.5,179.5,1375.5,179.5L1474.5,179.5"></path><path id="kity_path_71" fill="none" stroke="rgb(115, 161, 191)" stroke-width="1" d="M1067.5,317.5A166,70,0,0,1,1233.5,247.5"></path><path id="kity_path_79" fill="none" stroke="rgb(115, 161, 191)" stroke-width="1" d="M1067.5,317.5A166,28,0,0,0,1233.5,345.5"></path><path id="kity_path_87" fill="none" stroke="rgb(115, 161, 191)" stroke-width="1" d="M1331.5,247.5C1346.5,247.5,1346.5,279.5,1361.5,279.5L1494.5,279.5"></path><path id="kity_path_97" fill="none" stroke="rgb(115, 161, 191)" stroke-width="1" d="M1494.5,279.5C1509.5,279.5,1509.5,261.5,1524.5,261.5L1614.5,261.5"></path><path id="kity_path_105" fill="none" stroke="rgb(115, 161, 191)" stroke-width="1" d="M1614.5,261.5C1629.5,261.5,1629.5,279.5,1644.5,279.5L1784.5,279.5"></path><path id="kity_path_115" fill="none" stroke="rgb(115, 161, 191)" stroke-width="1" d="M1331.5,345.5C1346.5,345.5,1346.5,377.5,1361.5,377.5L1494.5,377.5"></path><path id="kity_path_125" fill="none" stroke="rgb(115, 161, 191)" stroke-width="1" d="M1067.5,317.5A166,218,0,0,0,1233.5,535.5"></path><path id="kity_path_133" fill="none" stroke="rgb(115, 161, 191)" stroke-width="1" d="M1345.5,535.5C1360.5,535.5,1360.5,567.5,1375.5,567.5L1472.5,567.5"></path><path id="kity_path_143" fill="none" stroke="rgb(115, 161, 191)" stroke-width="1" d="M1472.5,567.5C1487.5,567.5,1487.5,549.5,1502.5,549.5L1604.5,549.5"></path><path id="kity_path_151" fill="none" stroke="rgb(115, 161, 191)" stroke-width="1" d="M1604.5,549.5C1619.5,549.5,1619.5,567.5,1634.5,567.5L1767.5,567.5"></path><path id="kity_path_161" fill="none" stroke="rgb(115, 161, 191)" stroke-width="1" d="M1767.5,567.5C1782.5,567.5,1782.5,457.5,1797.5,457.5L1899.5,457.5"></path><path id="kity_path_171" fill="none" stroke="rgb(115, 161, 191)" stroke-width="1" d="M1899.5,457.5C1914.5,457.5,1914.5,475.5,1929.5,475.5L2073.5,475.5"></path><path id="kity_path_181" fill="none" stroke="rgb(115, 161, 191)" stroke-width="1" d="M1767.5,567.5C1782.5,567.5,1782.5,545.5,1797.5,545.5L1923.5,545.5"></path><path id="kity_path_189" fill="none" stroke="rgb(115, 161, 191)" stroke-width="1" d="M1923.5,545.5C1938.5,545.5,1938.5,563.5,1953.5,563.5L2103.5,563.5"></path><path id="kity_path_199" fill="none" stroke="rgb(115, 161, 191)" stroke-width="1" d="M1767.5,567.5C1782.5,567.5,1782.5,641.5,1797.5,641.5L1935.5,641.5"></path><path id="kity_path_207" fill="none" stroke="rgb(115, 161, 191)" stroke-width="1" d="M1935.5,641.5C1950.5,641.5,1950.5,615.5,1965.5,615.5L2066.5,615.5"></path><path id="kity_path_215" fill="none" stroke="rgb(115, 161, 191)" stroke-width="1" d="M1935.5,641.5C1950.5,641.5,1950.5,667.5,1965.5,667.5L2064.5,667.5"></path><path id="kity_path_223" fill="none" stroke="rgb(115, 161, 191)" stroke-width="1" d="M2066.5,615.5C2081.5,615.5,2081.5,615.5,2096.5,615.5L2329.5,615.5"></path><path id="kity_path_231" fill="none" stroke="rgb(115, 161, 191)" stroke-width="1" d="M2064.5,667.5C2079.5,667.5,2079.5,667.5,2094.5,667.5L2327.5,667.5"></path><path id="kity_path_239" fill="none" stroke="rgb(115, 161, 191)" stroke-width="1" d="M1067.5,317.5A166,268,0,0,0,901.5,49.5"></path><path id="kity_path_247" fill="none" stroke="rgb(115, 161, 191)" stroke-width="1" d="M789.5,49.5C774.5,49.5,774.5,81.5,759.5,81.5L664.5,81.5"></path><path id="kity_path_273" fill="none" stroke="rgb(115, 161, 191)" stroke-width="1" d="M1067.5,317.5A166,186,0,0,0,901.5,131.5"></path><path id="kity_path_281" fill="none" stroke="rgb(115, 161, 191)" stroke-width="1" d="M775.5,131.5C760.5,131.5,760.5,145.5,745.5,145.5L588.5,145.5"></path><path id="kity_path_289" fill="none" stroke="rgb(115, 161, 191)" stroke-width="1" d="M588.5,145.5C573.5,145.5,573.5,145.5,558.5,145.5L20.5,145.5"></path><path id="kity_path_297" fill="none" stroke="rgb(115, 161, 191)" stroke-width="1" d="M1067.5,317.5A166,120,0,0,0,901.5,197.5"></path><path id="kity_path_305" fill="none" stroke="rgb(115, 161, 191)" stroke-width="1" d="M761.5,197.5C746.5,197.5,746.5,211.5,731.5,211.5L573.5,211.5"></path><path id="kity_path_313" fill="none" stroke="rgb(115, 161, 191)" stroke-width="1" d="M573.5,211.5C558.5,211.5,558.5,211.5,543.5,211.5L21.5,211.5"></path><path id="kity_path_321" fill="none" stroke="rgb(115, 161, 191)" stroke-width="1" d="M1067.5,317.5A166,87,0,0,1,901.5,404.5"></path><path id="kity_path_329" fill="none" stroke="rgb(115, 161, 191)" stroke-width="1" d="M789.5,404.5C774.5,404.5,774.5,301.5,759.5,301.5L681.5,301.5"></path><path id="kity_path_337" fill="none" stroke="rgb(115, 161, 191)" stroke-width="1" d="M681.5,301.5C666.5,301.5,666.5,275.5,651.5,275.5L591.5,275.5"></path><path id="kity_path_345" fill="none" stroke="rgb(115, 161, 191)" stroke-width="1" d="M681.5,301.5C666.5,301.5,666.5,327.5,651.5,327.5L573.5,327.5"></path><path id="kity_path_353" fill="none" stroke="rgb(115, 161, 191)" stroke-width="1" d="M789.5,404.5C774.5,404.5,774.5,431.5,759.5,431.5L681.5,431.5"></path><path id="kity_path_361" fill="none" stroke="rgb(115, 161, 191)" stroke-width="1" d="M681.5,431.5C666.5,431.5,666.5,379.5,651.5,379.5L586.5,379.5"></path><path id="kity_path_369" fill="none" stroke="rgb(115, 161, 191)" stroke-width="1" d="M681.5,431.5C666.5,431.5,666.5,431.5,651.5,431.5L584.5,431.5"></path><path id="kity_path_377" fill="none" stroke="rgb(115, 161, 191)" stroke-width="1" d="M681.5,431.5C666.5,431.5,666.5,483.5,651.5,483.5L581.5,483.5"></path><path id="kity_path_385" fill="none" stroke="rgb(115, 161, 191)" stroke-width="1" d="M789.5,404.5C774.5,404.5,774.5,535.5,759.5,535.5L681.5,535.5"></path><path id="kity_path_393" fill="none" stroke="rgb(115, 161, 191)" stroke-width="1" d="M681.5,535.5C666.5,535.5,666.5,535.5,651.5,535.5L445.5,535.5"></path><path id="kity_path_401" fill="none" stroke="rgb(115, 161, 191)" stroke-width="1" d="M1067.5,317.5A166,268,0,0,1,901.5,585.5"></path></g><g id="minder_node1"><path id="node_outline1" fill="rgb(115, 161, 191)" stroke="rgb(115, 161, 191)" d="M1024.5,297.5h86a5,5,0,0,1,5,5v30a5,5,0,0,1,-5,5h-86a5,5,0,0,1,-5,-5v-30a5,5,0,0,1,5,-5z" stroke-width="3"></path><g id="node_text1" fill="white"><text id="kity_text_22" text-rendering="inherit" font-size="16" dy=".8em" y="309.5" x="1043.5">选择器</text></g></g><g id="kity_g_12"><path id="kity_path_13" fill="none" stroke="none" d="M1043.5,317.5h0v0h0z"></path></g><g id="kity_g_14"><path id="kity_path_15" fill="none" stroke="none" d="M1043.5,317.5h0v0h0z"></path><path id="kity_path_16" fill="none" stroke="none"></path></g><g id="minder_node2"><g id="node_expander1" style="cursor: pointer;"><path id="kity_path_36" fill="white" stroke="gray" d="M1234.5,99.5A6,6,0,1,1,1222.5,99.5A6,6,0,1,1,1234.5,99.5"></path><path id="kity_path_37" fill="none" stroke="gray" d="M1224,99.5L1233,99.5"></path></g><path id="node_outline2" fill="rgb(238, 243, 246)" stroke="rgb(115, 161, 191)" d="M1238.5,86.5h104a3,3,0,0,1,3,3v20a3,3,0,0,1,-3,3h-104a3,3,0,0,1,-3,-3v-20a3,3,0,0,1,3,-3z" stroke-width="1"></path><g id="node_text2" fill="black"><text id="kity_text_33" text-rendering="inherit" font-size="14" dy=".8em" y="92.5" x="1255.5">元素选择器</text></g></g><g id="minder_node3"><g id="node_expander2" style="cursor: pointer;"><path id="kity_path_44" fill="white" stroke="gray" d="M1234.5,165.5A6,6,0,1,1,1222.5,165.5A6,6,0,1,1,1234.5,165.5"></path><path id="kity_path_45" fill="none" stroke="gray" d="M1224,165.5L1233,165.5"></path></g><path id="node_outline3" fill="rgb(238, 243, 246)" stroke="rgb(115, 161, 191)" d="M1238.5,152.5h104a3,3,0,0,1,3,3v20a3,3,0,0,1,-3,3h-104a3,3,0,0,1,-3,-3v-20a3,3,0,0,1,3,-3z" stroke-width="1"></path><g id="node_text3" fill="black"><text id="kity_text_41" text-rendering="inherit" font-size="14" dy=".8em" y="158.5" x="1255.5">通配选择器</text></g></g><g id="minder_node4"><g id="node_expander3" style="cursor: pointer;" display="none"><path id="kity_path_52" fill="white" stroke="gray" d="M1385.5,99.5A6,6,0,1,1,1373.5,99.5A6,6,0,1,1,1385.5,99.5"></path><path id="kity_path_53" fill="none" stroke="gray"></path></g><path id="node_outline4" fill="none" stroke="none" d="M1390.5,88.5h88a5,5,0,0,1,5,5v12a5,5,0,0,1,-5,5h-88a5,5,0,0,1,-5,-5v-12a5,5,0,0,1,5,-5z" stroke-width="3"></path><g id="node_text4" fill="black"><text id="kity_text_49" text-rendering="inherit" font-size="12" dy=".8em" y="93.5" x="1395.5">h1 {color:red}</text></g></g><g id="minder_node6"><g id="node_expander5" style="cursor: pointer;" display="none"><path id="kity_path_68" fill="white" stroke="gray" d="M1385.5,165.5A6,6,0,1,1,1373.5,165.5A6,6,0,1,1,1385.5,165.5"></path><path id="kity_path_69" fill="none" stroke="gray"></path></g><path id="node_outline6" fill="none" stroke="none" d="M1390.5,154.5h79a5,5,0,0,1,5,5v12a5,5,0,0,1,-5,5h-79a5,5,0,0,1,-5,-5v-12a5,5,0,0,1,5,-5z" stroke-width="3"></path><g id="node_text6" fill="black"><text id="kity_text_65" text-rendering="inherit" font-size="12" dy=".8em" y="159.5" x="1395.5">* {color:red}</text></g></g><g id="minder_node7"><g id="node_expander6" style="cursor: pointer;"><path id="kity_path_76" fill="white" stroke="gray" d="M1234.5,247.5A6,6,0,1,1,1222.5,247.5A6,6,0,1,1,1234.5,247.5"></path><path id="kity_path_77" fill="none" stroke="gray" d="M1224,247.5L1233,247.5"></path></g><path id="node_outline7" fill="rgb(238, 243, 246)" stroke="rgb(115, 161, 191)" d="M1238.5,234.5h90a3,3,0,0,1,3,3v20a3,3,0,0,1,-3,3h-90a3,3,0,0,1,-3,-3v-20a3,3,0,0,1,3,-3z" stroke-width="1"></path><g id="node_text7" fill="black"><text id="kity_text_73" text-rendering="inherit" font-size="14" dy=".8em" y="240.5" x="1255.5">类选择器</text></g></g><g id="minder_node8"><g id="node_expander7" style="cursor: pointer;"><path id="kity_path_84" fill="white" stroke="gray" d="M1234.5,345.5A6,6,0,1,1,1222.5,345.5A6,6,0,1,1,1234.5,345.5"></path><path id="kity_path_85" fill="none" stroke="gray" d="M1224,345.5L1233,345.5"></path></g><path id="node_outline8" fill="rgb(238, 243, 246)" stroke="rgb(115, 161, 191)" d="M1238.5,332.5h90a3,3,0,0,1,3,3v20a3,3,0,0,1,-3,3h-90a3,3,0,0,1,-3,-3v-20a3,3,0,0,1,3,-3z" stroke-width="1"></path><g id="node_text8" fill="black"><text id="kity_text_81" text-rendering="inherit" font-size="14" dy=".8em" y="338.5" x="1255.5">ID选择器</text></g></g><g id="minder_node9"><g id="node_expander8" style="cursor: pointer;"><path id="kity_path_92" fill="white" stroke="gray" d="M1371.5,247.5A6,6,0,1,1,1359.5,247.5A6,6,0,1,1,1371.5,247.5"></path><path id="kity_path_93" fill="none" stroke="gray" d="M1361,247.5L1370,247.5"></path></g><path id="node_outline9" fill="none" stroke="none" d="M1376.5,218.5h113a5,5,0,0,1,5,5v48a5,5,0,0,1,-5,5h-113a5,5,0,0,1,-5,-5v-48a5,5,0,0,1,5,-5z" stroke-width="3"></path><g id="node_text9" fill="black"><text id="kity_text_89" text-rendering="inherit" font-size="12" dy=".8em" y="223.5" x="1381.5">.warning {</text><text id="kity_text_94" text-rendering="inherit" font-size="12" dy=".8em" y="241.5" x="1381.5">	    font-weight: bold;</text><text id="kity_text_95" text-rendering="inherit" font-size="12" dy=".8em" y="259.5" x="1381.5">	}</text></g></g><g id="minder_node10"><g id="node_expander9" style="cursor: pointer;"><path id="kity_path_102" fill="white" stroke="gray" d="M1534.5,247.5A6,6,0,1,1,1522.5,247.5A6,6,0,1,1,1534.5,247.5"></path><path id="kity_path_103" fill="none" stroke="gray" d="M1524,247.5L1533,247.5"></path></g><path id="node_outline10" fill="none" stroke="none" d="M1539.5,236.5h70a5,5,0,0,1,5,5v12a5,5,0,0,1,-5,5h-70a5,5,0,0,1,-5,-5v-12a5,5,0,0,1,5,-5z" stroke-width="3"></path><g id="node_text10" fill="black"><text id="kity_text_99" text-rendering="inherit" font-size="12" dy=".8em" y="241.5" x="1544.5">多类选择器</text></g></g><g id="minder_node11"><g id="node_expander10" style="cursor: pointer;" display="none"><path id="kity_path_110" fill="white" stroke="gray" d="M1654.5,247.5A6,6,0,1,1,1642.5,247.5A6,6,0,1,1,1654.5,247.5"></path><path id="kity_path_111" fill="none" stroke="gray"></path></g><path id="node_outline11" fill="none" stroke="none" d="M1659.5,218.5h120a5,5,0,0,1,5,5v48a5,5,0,0,1,-5,5h-120a5,5,0,0,1,-5,-5v-48a5,5,0,0,1,5,-5z" stroke-width="3"></path><g id="node_text11" fill="black"><text id="kity_text_107" text-rendering="inherit" font-size="12" dy=".8em" y="223.5" x="1664.5">.warning.urgent {</text><text id="kity_text_112" text-rendering="inherit" font-size="12" dy=".8em" y="241.5" x="1664.5">	    background: silver;</text><text id="kity_text_113" text-rendering="inherit" font-size="12" dy=".8em" y="259.5" x="1664.5">	}</text></g></g><g id="minder_node12"><g id="node_expander11" style="cursor: pointer;" display="none"><path id="kity_path_120" fill="white" stroke="gray" d="M1371.5,345.5A6,6,0,1,1,1359.5,345.5A6,6,0,1,1,1371.5,345.5"></path><path id="kity_path_121" fill="none" stroke="gray"></path></g><path id="node_outline12" fill="none" stroke="none" d="M1376.5,316.5h113a5,5,0,0,1,5,5v48a5,5,0,0,1,-5,5h-113a5,5,0,0,1,-5,-5v-48a5,5,0,0,1,5,-5z" stroke-width="3"></path><g id="node_text12" fill="black"><text id="kity_text_117" text-rendering="inherit" font-size="12" dy=".8em" y="321.5" x="1381.5">#lead-para {</text><text id="kity_text_122" text-rendering="inherit" font-size="12" dy=".8em" y="339.5" x="1381.5">	    font-weight: bold;</text><text id="kity_text_123" text-rendering="inherit" font-size="12" dy=".8em" y="357.5" x="1381.5">	}</text></g></g><g id="minder_node13"><g id="node_expander12" style="cursor: pointer;"><path id="kity_path_130" fill="white" stroke="gray" d="M1234.5,535.5A6,6,0,1,1,1222.5,535.5A6,6,0,1,1,1234.5,535.5"></path><path id="kity_path_131" fill="none" stroke="gray" d="M1224,535.5L1233,535.5"></path></g><path id="node_outline13" fill="rgb(238, 243, 246)" stroke="rgb(115, 161, 191)" d="M1238.5,522.5h104a3,3,0,0,1,3,3v20a3,3,0,0,1,-3,3h-104a3,3,0,0,1,-3,-3v-20a3,3,0,0,1,3,-3z" stroke-width="1"></path><g id="node_text13" fill="black"><text id="kity_text_127" text-rendering="inherit" font-size="14" dy=".8em" y="528.5" x="1255.5">属性选择器</text></g></g><g id="minder_node14"><g id="node_expander13" style="cursor: pointer;"><path id="kity_path_138" fill="white" stroke="gray" d="M1385.5,535.5A6,6,0,1,1,1373.5,535.5A6,6,0,1,1,1385.5,535.5"></path><path id="kity_path_139" fill="none" stroke="gray" d="M1375,535.5L1384,535.5"></path></g><path id="node_outline14" fill="none" stroke="none" d="M1390.5,506.5h77a5,5,0,0,1,5,5v48a5,5,0,0,1,-5,5h-77a5,5,0,0,1,-5,-5v-48a5,5,0,0,1,5,-5z" stroke-width="3"></path><g id="node_text14" fill="black"><text id="kity_text_135" text-rendering="inherit" font-size="12" dy=".8em" y="511.5" x="1395.5">h1[class] {</text><text id="kity_text_140" text-rendering="inherit" font-size="12" dy=".8em" y="529.5" x="1395.5">	    color: silver;</text><text id="kity_text_141" text-rendering="inherit" font-size="12" dy=".8em" y="547.5" x="1395.5">	}</text></g></g><g id="minder_node15"><g id="node_expander14" style="cursor: pointer;"><path id="kity_path_148" fill="white" stroke="gray" d="M1512.5,535.5A6,6,0,1,1,1500.5,535.5A6,6,0,1,1,1512.5,535.5"></path><path id="kity_path_149" fill="none" stroke="gray" d="M1502,535.5L1511,535.5"></path></g><path id="node_outline15" fill="none" stroke="none" d="M1517.5,524.5h82a5,5,0,0,1,5,5v12a5,5,0,0,1,-5,5h-82a5,5,0,0,1,-5,-5v-12a5,5,0,0,1,5,-5z" stroke-width="3"></path><g id="node_text15" fill="black"><text id="kity_text_145" text-rendering="inherit" font-size="12" dy=".8em" y="529.5" x="1522.5">多属性选择器</text></g></g><g id="minder_node16"><g id="node_expander15" style="cursor: pointer;"><path id="kity_path_156" fill="white" stroke="gray" d="M1644.5,535.5A6,6,0,1,1,1632.5,535.5A6,6,0,1,1,1644.5,535.5"></path><path id="kity_path_157" fill="none" stroke="gray" d="M1634,535.5L1643,535.5"></path></g><path id="node_outline16" fill="none" stroke="none" d="M1649.5,506.5h113a5,5,0,0,1,5,5v48a5,5,0,0,1,-5,5h-113a5,5,0,0,1,-5,-5v-48a5,5,0,0,1,5,-5z" stroke-width="3"></path><g id="node_text16" fill="black"><text id="kity_text_153" text-rendering="inherit" font-size="12" dy=".8em" y="511.5" x="1654.5">a[href][title] {</text><text id="kity_text_158" text-rendering="inherit" font-size="12" dy=".8em" y="529.5" x="1654.5">	    font-weight: bold;</text><text id="kity_text_159" text-rendering="inherit" font-size="12" dy=".8em" y="547.5" x="1654.5">	}</text></g></g><g id="minder_node17"><g id="node_expander16" style="cursor: pointer;"><path id="kity_path_166" fill="white" stroke="gray" d="M1807.5,443.5A6,6,0,1,1,1795.5,443.5A6,6,0,1,1,1807.5,443.5"></path><path id="kity_path_167" fill="none" stroke="gray" d="M1797,443.5L1806,443.5"></path></g><path id="node_outline17" fill="none" stroke="none" d="M1812.5,432.5h82a5,5,0,0,1,5,5v12a5,5,0,0,1,-5,5h-82a5,5,0,0,1,-5,-5v-12a5,5,0,0,1,5,-5z" stroke-width="3"></path><g id="node_text17" fill="black"><text id="kity_text_163" text-rendering="inherit" font-size="12" dy=".8em" y="437.5" x="1817.5">属性值选择器</text></g></g><g id="minder_node18"><g id="node_expander17" style="cursor: pointer;" display="none"><path id="kity_path_176" fill="white" stroke="gray" d="M1939.5,443.5A6,6,0,1,1,1927.5,443.5A6,6,0,1,1,1939.5,443.5"></path><path id="kity_path_177" fill="none" stroke="gray"></path></g><path id="node_outline18" fill="none" stroke="none" d="M1944.5,414.5h124a5,5,0,0,1,5,5v48a5,5,0,0,1,-5,5h-124a5,5,0,0,1,-5,-5v-48a5,5,0,0,1,5,-5z" stroke-width="3"></path><g id="node_text18" fill="black"><text id="kity_text_173" text-rendering="inherit" font-size="12" dy=".8em" y="419.5" x="1949.5"> planet[moons="1"] {</text><text id="kity_text_178" text-rendering="inherit" font-size="12" dy=".8em" y="437.5" x="1949.5">	    font-weight: bold;</text><text id="kity_text_179" text-rendering="inherit" font-size="12" dy=".8em" y="455.5" x="1949.5">	}</text></g></g><g id="minder_node19"><g id="node_expander18" style="cursor: pointer;"><path id="kity_path_186" fill="white" stroke="gray" d="M1807.5,531.5A6,6,0,1,1,1795.5,531.5A6,6,0,1,1,1807.5,531.5"></path><path id="kity_path_187" fill="none" stroke="gray" d="M1797,531.5L1806,531.5"></path></g><path id="node_outline19" fill="none" stroke="none" d="M1812.5,520.5h106a5,5,0,0,1,5,5v12a5,5,0,0,1,-5,5h-106a5,5,0,0,1,-5,-5v-12a5,5,0,0,1,5,-5z" stroke-width="3"></path><g id="node_text19" fill="black"><text id="kity_text_183" text-rendering="inherit" font-size="12" dy=".8em" y="525.5" x="1817.5">部分属性值选择器</text></g></g><g id="minder_node20"><g id="node_expander19" style="cursor: pointer;" display="none"><path id="kity_path_194" fill="white" stroke="gray" d="M1963.5,531.5A6,6,0,1,1,1951.5,531.5A6,6,0,1,1,1963.5,531.5"></path><path id="kity_path_195" fill="none" stroke="gray"></path></g><path id="node_outline20" fill="none" stroke="none" d="M1968.5,502.5h130a5,5,0,0,1,5,5v48a5,5,0,0,1,-5,5h-130a5,5,0,0,1,-5,-5v-48a5,5,0,0,1,5,-5z" stroke-width="3"></path><g id="node_text20" fill="black"><text id="kity_text_191" text-rendering="inherit" font-size="12" dy=".8em" y="507.5" x="1973.5"> p[class~="warning"] {</text><text id="kity_text_196" text-rendering="inherit" font-size="12" dy=".8em" y="525.5" x="1973.5">	    font-weight: bold;</text><text id="kity_text_197" text-rendering="inherit" font-size="12" dy=".8em" y="543.5" x="1973.5">	}</text></g></g><g id="minder_node21"><g id="node_expander20" style="cursor: pointer;"><path id="kity_path_204" fill="white" stroke="gray" d="M1807.5,627.5A6,6,0,1,1,1795.5,627.5A6,6,0,1,1,1807.5,627.5"></path><path id="kity_path_205" fill="none" stroke="gray" d="M1797,627.5L1806,627.5"></path></g><path id="node_outline21" fill="none" stroke="none" d="M1812.5,616.5h118a5,5,0,0,1,5,5v12a5,5,0,0,1,-5,5h-118a5,5,0,0,1,-5,-5v-12a5,5,0,0,1,5,-5z" stroke-width="3"></path><g id="node_text21" fill="black"><text id="kity_text_201" text-rendering="inherit" font-size="12" dy=".8em" y="621.5" x="1817.5">子串匹配属性选择器</text></g></g><g id="minder_node22"><g id="node_expander21" style="cursor: pointer;"><path id="kity_path_212" fill="white" stroke="gray" d="M1975.5,601.5A6,6,0,1,1,1963.5,601.5A6,6,0,1,1,1975.5,601.5"></path><path id="kity_path_213" fill="none" stroke="gray" d="M1965,601.5L1974,601.5"></path></g><path id="node_outline22" fill="none" stroke="none" d="M1980.5,590.5h81a5,5,0,0,1,5,5v12a5,5,0,0,1,-5,5h-81a5,5,0,0,1,-5,-5v-12a5,5,0,0,1,5,-5z" stroke-width="3"></path><g id="node_text22" fill="black"><text id="kity_text_209" text-rendering="inherit" font-size="12" dy=".8em" y="595.5" x="1985.5">[foo^="bar")</text></g></g><g id="minder_node23"><g id="node_expander22" style="cursor: pointer;"><path id="kity_path_220" fill="white" stroke="gray" d="M1975.5,653.5A6,6,0,1,1,1963.5,653.5A6,6,0,1,1,1975.5,653.5"></path><path id="kity_path_221" fill="none" stroke="gray" d="M1965,653.5L1974,653.5"></path></g><path id="node_outline23" fill="none" stroke="none" d="M1980.5,642.5h79a5,5,0,0,1,5,5v12a5,5,0,0,1,-5,5h-79a5,5,0,0,1,-5,-5v-12a5,5,0,0,1,5,-5z" stroke-width="3"></path><g id="node_text23" fill="black"><text id="kity_text_217" text-rendering="inherit" font-size="12" dy=".8em" y="647.5" x="1985.5">[foo$="bar"]</text></g></g><g id="minder_node24"><g id="node_expander23" style="cursor: pointer;" display="none"><path id="kity_path_228" fill="white" stroke="gray" d="M2106.5,601.5A6,6,0,1,1,2094.5,601.5A6,6,0,1,1,2106.5,601.5"></path><path id="kity_path_229" fill="none" stroke="gray"></path></g><path id="node_outline24" fill="none" stroke="none" d="M2111.5,590.5h213a5,5,0,0,1,5,5v12a5,5,0,0,1,-5,5h-213a5,5,0,0,1,-5,-5v-12a5,5,0,0,1,5,-5z" stroke-width="3"></path><g id="node_text24" fill="black"><text id="kity_text_225" text-rendering="inherit" font-size="12" dy=".8em" y="595.5" x="2116.5">选择foo属性值以"bar"开头的所有元素</text></g></g><g id="minder_node25"><g id="node_expander24" style="cursor: pointer;" display="none"><path id="kity_path_236" fill="white" stroke="gray" d="M2104.5,653.5A6,6,0,1,1,2092.5,653.5A6,6,0,1,1,2104.5,653.5"></path><path id="kity_path_237" fill="none" stroke="gray"></path></g><path id="node_outline25" fill="none" stroke="none" d="M2109.5,642.5h213a5,5,0,0,1,5,5v12a5,5,0,0,1,-5,5h-213a5,5,0,0,1,-5,-5v-12a5,5,0,0,1,5,-5z" stroke-width="3"></path><g id="node_text25" fill="black"><text id="kity_text_233" text-rendering="inherit" font-size="12" dy=".8em" y="647.5" x="2114.5">选择foo属性值以"bar"结尾的所有元素</text></g></g><g id="minder_node26"><g id="node_expander25" style="cursor: pointer;"><path id="kity_path_244" fill="white" stroke="gray" d="M912.5,49.5A6,6,0,1,1,900.5,49.5A6,6,0,1,1,912.5,49.5"></path><path id="kity_path_245" fill="none" stroke="gray" d="M902,49.5L911,49.5"></path></g><path id="node_outline26" fill="rgb(238, 243, 246)" stroke="rgb(115, 161, 191)" d="M792.5,36.5h104a3,3,0,0,1,3,3v20a3,3,0,0,1,-3,3h-104a3,3,0,0,1,-3,-3v-20a3,3,0,0,1,3,-3z" stroke-width="1"></path><g id="node_text26" fill="black"><text id="kity_text_241" text-rendering="inherit" font-size="14" dy=".8em" y="42.5" x="809.5">后代选择器</text></g></g><g id="minder_node27"><g id="node_expander26" style="cursor: pointer;" display="none"><path id="kity_path_252" fill="white" stroke="gray" d="M761.5,49.5A6,6,0,1,1,749.5,49.5A6,6,0,1,1,761.5,49.5"></path><path id="kity_path_253" fill="none" stroke="gray" d="M751,49.5L760,49.5"></path></g><path id="node_outline27" fill="none" stroke="none" d="M669.5,20.5h75a5,5,0,0,1,5,5v48a5,5,0,0,1,-5,5h-75a5,5,0,0,1,-5,-5v-48a5,5,0,0,1,5,-5z" stroke-width="3"></path><g id="node_text27" fill="black"><text id="kity_text_249" text-rendering="inherit" font-size="12" dy=".8em" y="25.5" x="674.5">h1 em {</text><text id="kity_text_254" text-rendering="inherit" font-size="12" dy=".8em" y="43.5" x="674.5">	    color: gray;</text><text id="kity_text_255" text-rendering="inherit" font-size="12" dy=".8em" y="61.5" x="674.5">	}</text></g></g><g id="minder_node30"><g id="node_expander29" style="cursor: pointer;"><path id="kity_path_278" fill="white" stroke="gray" d="M912.5,131.5A6,6,0,1,1,900.5,131.5A6,6,0,1,1,912.5,131.5"></path><path id="kity_path_279" fill="none" stroke="gray" d="M902,131.5L911,131.5"></path></g><path id="node_outline30" fill="rgb(238, 243, 246)" stroke="rgb(115, 161, 191)" d="M778.5,118.5h118a3,3,0,0,1,3,3v20a3,3,0,0,1,-3,3h-118a3,3,0,0,1,-3,-3v-20a3,3,0,0,1,3,-3z" stroke-width="1"></path><g id="node_text30" fill="black"><text id="kity_text_275" text-rendering="inherit" font-size="14" dy=".8em" y="124.5" x="795.5">子元素选择器</text></g></g><g id="minder_node31"><g id="node_expander30" style="cursor: pointer;"><path id="kity_path_286" fill="white" stroke="gray" d="M747.5,131.5A6,6,0,1,1,735.5,131.5A6,6,0,1,1,747.5,131.5"></path><path id="kity_path_287" fill="none" stroke="gray" d="M737,131.5L746,131.5"></path></g><path id="node_outline31" fill="none" stroke="none" d="M593.5,120.5h137a5,5,0,0,1,5,5v12a5,5,0,0,1,-5,5h-137a5,5,0,0,1,-5,-5v-12a5,5,0,0,1,5,-5z" stroke-width="3"></path><g id="node_text31" fill="black"><text id="kity_text_283" text-rendering="inherit" font-size="12" dy=".8em" y="125.5" x="598.5">h1&gt;strong {color: red;}</text></g></g><g id="minder_node32"><g id="node_expander31" style="cursor: pointer;" display="none"><path id="kity_path_294" fill="white" stroke="gray" d="M560.5,131.5A6,6,0,1,1,548.5,131.5A6,6,0,1,1,560.5,131.5"></path><path id="kity_path_295" fill="none" stroke="gray"></path></g><path id="node_outline32" fill="none" stroke="none" d="M25.5,120.5h518a5,5,0,0,1,5,5v12a5,5,0,0,1,-5,5h-518a5,5,0,0,1,-5,-5v-12a5,5,0,0,1,5,-5z" stroke-width="3"></path><g id="node_text32" fill="black"><text id="kity_text_291" text-rendering="inherit" font-size="12" dy=".8em" y="125.5" x="30.5">这个规则会把第一个h1下面出现的strong元素变成红色，但是第二个出现的strong 元素不受影响</text></g></g><g id="minder_node33"><g id="node_expander32" style="cursor: pointer;"><path id="kity_path_302" fill="white" stroke="gray" d="M912.5,197.5A6,6,0,1,1,900.5,197.5A6,6,0,1,1,912.5,197.5"></path><path id="kity_path_303" fill="none" stroke="gray" d="M902,197.5L911,197.5"></path></g><path id="node_outline33" fill="rgb(238, 243, 246)" stroke="rgb(115, 161, 191)" d="M764.5,184.5h132a3,3,0,0,1,3,3v20a3,3,0,0,1,-3,3h-132a3,3,0,0,1,-3,-3v-20a3,3,0,0,1,3,-3z" stroke-width="1"></path><g id="node_text33" fill="black"><text id="kity_text_299" text-rendering="inherit" font-size="14" dy=".8em" y="190.5" x="781.5">相邻兄弟选择器</text></g></g><g id="minder_node34"><g id="node_expander33" style="cursor: pointer;"><path id="kity_path_310" fill="white" stroke="gray" d="M733.5,197.5A6,6,0,1,1,721.5,197.5A6,6,0,1,1,733.5,197.5"></path><path id="kity_path_311" fill="none" stroke="gray" d="M723,197.5L732,197.5"></path></g><path id="node_outline34" fill="none" stroke="none" d="M578.5,186.5h138a5,5,0,0,1,5,5v12a5,5,0,0,1,-5,5h-138a5,5,0,0,1,-5,-5v-12a5,5,0,0,1,5,-5z" stroke-width="3"></path><g id="node_text34" fill="black"><text id="kity_text_307" text-rendering="inherit" font-size="12" dy=".8em" y="191.5" x="583.5">h1 + p {margin-top: 0;}</text></g></g><g id="minder_node35"><g id="node_expander34" style="cursor: pointer;" display="none"><path id="kity_path_318" fill="white" stroke="gray" d="M545.5,197.5A6,6,0,1,1,533.5,197.5A6,6,0,1,1,545.5,197.5"></path><path id="kity_path_319" fill="none" stroke="gray"></path></g><path id="node_outline35" fill="none" stroke="none" d="M26.5,186.5h502a5,5,0,0,1,5,5v12a5,5,0,0,1,-5,5h-502a5,5,0,0,1,-5,-5v-12a5,5,0,0,1,5,-5z" stroke-width="3"></path><g id="node_text35" fill="black"><text id="kity_text_315" text-rendering="inherit" font-size="12" dy=".8em" y="191.5" x="31.5">这个选择器读作“选择紧接在一个h1元素后出现的所有段落。h1要与p元素有共同的父元素”</text></g></g><g id="minder_node36"><g id="node_expander35" style="cursor: pointer;"><path id="kity_path_326" fill="white" stroke="gray" d="M912.5,404.5A6,6,0,1,1,900.5,404.5A6,6,0,1,1,912.5,404.5"></path><path id="kity_path_327" fill="none" stroke="gray" d="M902,404.5L911,404.5"></path></g><path id="node_outline36" fill="rgb(238, 243, 246)" stroke="rgb(115, 161, 191)" d="M792.5,391.5h104a3,3,0,0,1,3,3v20a3,3,0,0,1,-3,3h-104a3,3,0,0,1,-3,-3v-20a3,3,0,0,1,3,-3z" stroke-width="1"></path><g id="node_text36" fill="black"><text id="kity_text_323" text-rendering="inherit" font-size="14" dy=".8em" y="397.5" x="809.5">伪类选择器</text></g></g><g id="minder_node37"><g id="node_expander36" style="cursor: pointer;"><path id="kity_path_334" fill="white" stroke="gray" d="M761.5,287.5A6,6,0,1,1,749.5,287.5A6,6,0,1,1,761.5,287.5"></path><path id="kity_path_335" fill="none" stroke="gray" d="M751,287.5L760,287.5"></path></g><path id="node_outline37" fill="none" stroke="none" d="M686.5,276.5h58a5,5,0,0,1,5,5v12a5,5,0,0,1,-5,5h-58a5,5,0,0,1,-5,-5v-12a5,5,0,0,1,5,-5z" stroke-width="3"></path><g id="node_text37" fill="black"><text id="kity_text_331" text-rendering="inherit" font-size="12" dy=".8em" y="281.5" x="691.5">链接伪类</text></g></g><g id="minder_node38"><g id="node_expander37" style="cursor: pointer;" display="none"><path id="kity_path_342" fill="white" stroke="gray" d="M653.5,261.5A6,6,0,1,1,641.5,261.5A6,6,0,1,1,653.5,261.5"></path><path id="kity_path_343" fill="none" stroke="gray"></path></g><path id="node_outline38" fill="none" stroke="none" d="M596.5,250.5h40a5,5,0,0,1,5,5v12a5,5,0,0,1,-5,5h-40a5,5,0,0,1,-5,-5v-12a5,5,0,0,1,5,-5z" stroke-width="3"></path><g id="node_text38" fill="black"><text id="kity_text_339" text-rendering="inherit" font-size="12" dy=".8em" y="255.5" x="601.5">a:link</text></g></g><g id="minder_node39"><g id="node_expander38" style="cursor: pointer;" display="none"><path id="kity_path_350" fill="white" stroke="gray" d="M653.5,313.5A6,6,0,1,1,641.5,313.5A6,6,0,1,1,653.5,313.5"></path><path id="kity_path_351" fill="none" stroke="gray"></path></g><path id="node_outline39" fill="none" stroke="none" d="M578.5,302.5h58a5,5,0,0,1,5,5v12a5,5,0,0,1,-5,5h-58a5,5,0,0,1,-5,-5v-12a5,5,0,0,1,5,-5z" stroke-width="3"></path><g id="node_text39" fill="black"><text id="kity_text_347" text-rendering="inherit" font-size="12" dy=".8em" y="307.5" x="583.5">a:visited</text></g></g><g id="minder_node40"><g id="node_expander39" style="cursor: pointer;"><path id="kity_path_358" fill="white" stroke="gray" d="M761.5,417.5A6,6,0,1,1,749.5,417.5A6,6,0,1,1,761.5,417.5"></path><path id="kity_path_359" fill="none" stroke="gray" d="M751,417.5L760,417.5"></path></g><path id="node_outline40" fill="none" stroke="none" d="M686.5,406.5h58a5,5,0,0,1,5,5v12a5,5,0,0,1,-5,5h-58a5,5,0,0,1,-5,-5v-12a5,5,0,0,1,5,-5z" stroke-width="3"></path><g id="node_text40" fill="black"><text id="kity_text_355" text-rendering="inherit" font-size="12" dy=".8em" y="411.5" x="691.5">动态伪类</text></g></g><g id="minder_node41"><g id="node_expander40" style="cursor: pointer;" display="none"><path id="kity_path_366" fill="white" stroke="gray" d="M653.5,365.5A6,6,0,1,1,641.5,365.5A6,6,0,1,1,653.5,365.5"></path><path id="kity_path_367" fill="none" stroke="gray"></path></g><path id="node_outline41" fill="none" stroke="none" d="M591.5,354.5h45a5,5,0,0,1,5,5v12a5,5,0,0,1,-5,5h-45a5,5,0,0,1,-5,-5v-12a5,5,0,0,1,5,-5z" stroke-width="3"></path><g id="node_text41" fill="black"><text id="kity_text_363" text-rendering="inherit" font-size="12" dy=".8em" y="359.5" x="596.5">:focus</text></g></g><g id="minder_node42"><g id="node_expander41" style="cursor: pointer;" display="none"><path id="kity_path_374" fill="white" stroke="gray" d="M653.5,417.5A6,6,0,1,1,641.5,417.5A6,6,0,1,1,653.5,417.5"></path><path id="kity_path_375" fill="none" stroke="gray"></path></g><path id="node_outline42" fill="none" stroke="none" d="M589.5,406.5h47a5,5,0,0,1,5,5v12a5,5,0,0,1,-5,5h-47a5,5,0,0,1,-5,-5v-12a5,5,0,0,1,5,-5z" stroke-width="3"></path><g id="node_text42" fill="black"><text id="kity_text_371" text-rendering="inherit" font-size="12" dy=".8em" y="411.5" x="594.5">:hover</text></g></g><g id="minder_node43"><g id="node_expander42" style="cursor: pointer;" display="none"><path id="kity_path_382" fill="white" stroke="gray" d="M653.5,469.5A6,6,0,1,1,641.5,469.5A6,6,0,1,1,653.5,469.5"></path><path id="kity_path_383" fill="none" stroke="gray"></path></g><path id="node_outline43" fill="none" stroke="none" d="M586.5,458.5h50a5,5,0,0,1,5,5v12a5,5,0,0,1,-5,5h-50a5,5,0,0,1,-5,-5v-12a5,5,0,0,1,5,-5z" stroke-width="3"></path><g id="node_text43" fill="black"><text id="kity_text_379" text-rendering="inherit" font-size="12" dy=".8em" y="463.5" x="591.5">:active</text></g></g><g id="minder_node44"><g id="node_expander43" style="cursor: pointer;"><path id="kity_path_390" fill="white" stroke="gray" d="M761.5,521.5A6,6,0,1,1,749.5,521.5A6,6,0,1,1,761.5,521.5"></path><path id="kity_path_391" fill="none" stroke="gray" d="M751,521.5L760,521.5"></path></g><path id="node_outline44" fill="none" stroke="none" d="M686.5,510.5h58a5,5,0,0,1,5,5v12a5,5,0,0,1,-5,5h-58a5,5,0,0,1,-5,-5v-12a5,5,0,0,1,5,-5z" stroke-width="3"></path><g id="node_text44" fill="black"><text id="kity_text_387" text-rendering="inherit" font-size="12" dy=".8em" y="515.5" x="691.5">静态伪类</text></g></g><g id="minder_node45"><g id="node_expander44" style="cursor: pointer;" display="none"><path id="kity_path_398" fill="white" stroke="gray" d="M653.5,521.5A6,6,0,1,1,641.5,521.5A6,6,0,1,1,653.5,521.5"></path><path id="kity_path_399" fill="none" stroke="gray"></path></g><path id="node_outline45" fill="none" stroke="none" d="M450.5,510.5h186a5,5,0,0,1,5,5v12a5,5,0,0,1,-5,5h-186a5,5,0,0,1,-5,-5v-12a5,5,0,0,1,5,-5z" stroke-width="3"></path><g id="node_text45" fill="black"><text id="kity_text_395" text-rendering="inherit" font-size="12" dy=".8em" y="515.5" x="455.5">p:first-child {font-weight: bold;}</text></g></g><g id="minder_node46"><g id="node_expander45" style="cursor: pointer;" display="none"><path id="kity_path_406" fill="white" stroke="gray" d="M912.5,585.5A6,6,0,1,1,900.5,585.5A6,6,0,1,1,912.5,585.5"></path><path id="kity_path_407" fill="none" stroke="gray"></path></g><path id="node_outline46" fill="rgb(238, 243, 246)" stroke="rgb(115, 161, 191)" d="M778.5,572.5h118a3,3,0,0,1,3,3v20a3,3,0,0,1,-3,3h-118a3,3,0,0,1,-3,-3v-20a3,3,0,0,1,3,-3z" stroke-width="1"></path><g id="node_text46" fill="black"><text id="kity_text_403" text-rendering="inherit" font-size="14" dy=".8em" y="578.5" x="795.5">伪元素选择器</text></g></g></g></g></svg>