<svg id="kity_svg_6" xmlns="http://www.w3.org/2000/svg" xmlns:xlink="http://www.w3.org/1999/xlink" version="1.1" width="1174" height="570" style="background: rgb(251, 251, 251); visibility: visible;" viewBox="0 0 1174 570"><defs id="kity_defs_7"><linearGradient id="kity_linearGradient_17" x1="0" y1="0" x2="0" y2="1"><stop id="kity_stop_18" offset="0" stop-color="rgb(255, 255, 255)"></stop><stop id="kity_stop_19" offset="1" stop-color="rgb(204, 204, 204)"></stop></linearGradient><marker id="kity_marker_2" orient="auto" refX="6" refY="0" viewBox="-7 -7 14 14" markerWidth="7" markerHeight="7" markerUnits="userSpaceOnUse"><path id="kity_path_3" fill="rgb(115, 161, 191)" stroke="none" d="M6,0A6,6,0,1,1,-6,0A6,6,0,1,1,6,0"></path></marker></defs><g id="kity_g_8"><g id="minder1" text-rendering="optimize-speed"><g id="minder_connect_group1"><path id="kity_path_31" fill="none" stroke="rgb(115, 161, 191)" stroke-width="1" d="M915.5,201.5C930.5,201.5,930.5,97.5,945.5,97.5L1023.5,97.5"></path><path id="kity_path_63" fill="none" stroke="rgb(115, 161, 191)" stroke-width="1" d="M915.5,201.5C930.5,201.5,930.5,305.5,945.5,305.5L1023.5,305.5"></path><path id="kity_path_111" fill="none" stroke="rgb(115, 161, 191)" stroke-width="1" d="M538.5,356.5A158,169,0,0,1,696.5,187.5"></path><path id="kity_path_127" fill="none" stroke="rgb(115, 161, 191)" stroke-width="1" d="M794.5,187.5C809.5,187.5,809.5,201.5,824.5,201.5L915.5,201.5"></path><path id="kity_path_134" fill="none" stroke="rgb(115, 161, 191)" stroke-width="1" d="M1023.5,97.5C1038.5,97.5,1038.5,45.5,1053.5,45.5L1114.5,45.5"></path><path id="kity_path_135" fill="none" stroke="rgb(115, 161, 191)" stroke-width="1" d="M1023.5,97.5C1038.5,97.5,1038.5,97.5,1053.5,97.5L1135.5,97.5"></path><path id="kity_path_136" fill="none" stroke="rgb(115, 161, 191)" stroke-width="1" d="M1023.5,97.5C1038.5,97.5,1038.5,149.5,1053.5,149.5L1093.5,149.5"></path><path id="kity_path_137" fill="none" stroke="rgb(115, 161, 191)" stroke-width="1" d="M1023.5,305.5C1038.5,305.5,1038.5,201.5,1053.5,201.5L1107.5,201.5"></path><path id="kity_path_138" fill="none" stroke="rgb(115, 161, 191)" stroke-width="1" d="M1023.5,305.5C1038.5,305.5,1038.5,253.5,1053.5,253.5L1135.5,253.5"></path><path id="kity_path_139" fill="none" stroke="rgb(115, 161, 191)" stroke-width="1" d="M1023.5,305.5C1038.5,305.5,1038.5,305.5,1053.5,305.5L1154.5,305.5"></path><path id="kity_path_140" fill="none" stroke="rgb(115, 161, 191)" stroke-width="1" d="M1023.5,305.5C1038.5,305.5,1038.5,357.5,1053.5,357.5L1125.5,357.5"></path><path id="kity_path_141" fill="none" stroke="rgb(115, 161, 191)" stroke-width="1" d="M1023.5,305.5C1038.5,305.5,1038.5,409.5,1053.5,409.5L1128.5,409.5"></path><path id="kity_path_143" fill="none" stroke="rgb(115, 161, 191)" stroke-width="1" d="M538.5,356.5A158,103,0,0,0,696.5,459.5"></path><path id="kity_path_151" fill="none" stroke="rgb(115, 161, 191)" stroke-width="1" d="M794.5,459.5C809.5,459.5,809.5,473.5,824.5,473.5L921.5,473.5"></path><path id="kity_path_159" fill="none" stroke="rgb(115, 161, 191)" stroke-width="1" d="M538.5,356.5A158,169,0,0,0,696.5,525.5"></path><path id="kity_path_167" fill="none" stroke="rgb(115, 161, 191)" stroke-width="1" d="M794.5,525.5C809.5,525.5,809.5,539.5,824.5,539.5L901.5,539.5"></path><path id="kity_path_183" fill="none" stroke="rgb(115, 161, 191)" stroke-width="1" d="M538.5,356.5A158,180,0,0,0,380.5,176.5"></path><path id="kity_path_191" fill="none" stroke="rgb(115, 161, 191)" stroke-width="1" d="M282.5,176.5C267.5,176.5,267.5,190.5,252.5,190.5L170.5,190.5"></path><path id="kity_path_199" fill="none" stroke="rgb(115, 161, 191)" stroke-width="1" d="M170.5,190.5C155.5,190.5,155.5,112.5,140.5,112.5L69.5,112.5"></path><path id="kity_path_207" fill="none" stroke="rgb(115, 161, 191)" stroke-width="1" d="M170.5,190.5C155.5,190.5,155.5,164.5,140.5,164.5L66.5,164.5"></path><path id="kity_path_215" fill="none" stroke="rgb(115, 161, 191)" stroke-width="1" d="M170.5,190.5C155.5,190.5,155.5,216.5,140.5,216.5L83.5,216.5"></path><path id="kity_path_223" fill="none" stroke="rgb(115, 161, 191)" stroke-width="1" d="M170.5,190.5C155.5,190.5,155.5,268.5,140.5,268.5L75.5,268.5"></path><path id="kity_path_231" fill="none" stroke="rgb(115, 161, 191)" stroke-width="1" d="M538.5,356.5A158,38,0,0,1,380.5,394.5"></path><path id="kity_path_239" fill="none" stroke="rgb(115, 161, 191)" stroke-width="1" d="M151.5,408.5C136.5,408.5,136.5,486.5,121.5,486.5L29.5,486.5"></path><path id="kity_path_247" fill="none" stroke="rgb(115, 161, 191)" stroke-width="1" d="M151.5,408.5C136.5,408.5,136.5,434.5,121.5,434.5L20.5,434.5"></path><path id="kity_path_255" fill="none" stroke="rgb(115, 161, 191)" stroke-width="1" d="M151.5,408.5C136.5,408.5,136.5,382.5,121.5,382.5L50.5,382.5"></path><path id="kity_path_263" fill="none" stroke="rgb(115, 161, 191)" stroke-width="1" d="M151.5,408.5C136.5,408.5,136.5,330.5,121.5,330.5L56.5,330.5"></path><path id="kity_path_271" fill="none" stroke="rgb(115, 161, 191)" stroke-width="1" d="M282.5,394.5C267.5,394.5,267.5,408.5,252.5,408.5L151.5,408.5"></path><path id="kity_path_279" fill="none" stroke="rgb(115, 161, 191)" stroke-width="1" d="M538.5,356.5A158,180,0,0,1,380.5,536.5"></path><path id="kity_path_287" fill="none" stroke="rgb(115, 161, 191)" stroke-width="1" d="M282.5,536.5C267.5,536.5,267.5,550.5,252.5,550.5L152.5,550.5"></path></g><g id="minder_node1"><path id="node_outline1" fill="rgb(115, 161, 191)" stroke="rgb(115, 161, 191)" d="M503.5,336.5h70a5,5,0,0,1,5,5v30a5,5,0,0,1,-5,5h-70a5,5,0,0,1,-5,-5v-30a5,5,0,0,1,5,-5z" stroke-width="3"></path><g id="node_text1" fill="white"><text id="kity_text_22" text-rendering="inherit" font-size="16" dy=".8em" y="348.5" x="522.5">字体</text></g></g><g id="kity_g_14" display="none"><path id="kity_path_15" fill="rgba(0, 92, 153, 0.5)" stroke="none" d="M151.5,473.5h91v15h-91z"></path><path id="kity_path_16" fill="none" stroke="rgb(0, 76, 128)" d="M151.5,488.5L242.5,488.5" stroke-width="1"></path></g><g id="minder_node2" opacity="1"><g id="node_expander1" style="cursor: pointer;"><path id="kity_path_36" fill="white" stroke="gray" d="M955.5,83.5A6,6,0,1,1,943.5,83.5A6,6,0,1,1,955.5,83.5"></path><path id="kity_path_37" fill="none" stroke="gray" d="M945,83.5L954,83.5"></path></g><path id="node_outline2" fill="none" stroke="none" d="M960.5,72.5h58a5,5,0,0,1,5,5v12a5,5,0,0,1,-5,5h-58a5,5,0,0,1,-5,-5v-12a5,5,0,0,1,5,-5z" stroke-width="3"></path><g id="node_text2" fill="black"><text id="kity_text_33" text-rendering="inherit" font-size="12" dy=".8em" y="77.5" x="965.5">特定字体</text></g></g><g id="minder_node6" opacity="1"><g id="node_expander5" style="cursor: pointer;"><path id="kity_path_68" fill="white" stroke="gray" d="M955.5,291.5A6,6,0,1,1,943.5,291.5A6,6,0,1,1,955.5,291.5"></path><path id="kity_path_69" fill="none" stroke="gray" d="M945,291.5L954,291.5"></path></g><path id="node_outline6" fill="none" stroke="none" d="M960.5,280.5h58a5,5,0,0,1,5,5v12a5,5,0,0,1,-5,5h-58a5,5,0,0,1,-5,-5v-12a5,5,0,0,1,5,-5z" stroke-width="3"></path><g id="node_text6" fill="black"><text id="kity_text_65" text-rendering="inherit" font-size="12" dy=".8em" y="285.5" x="965.5">通用字体</text></g></g><g id="minder_node12"><g id="node_expander11" style="cursor: pointer;"><path id="kity_path_116" fill="white" stroke="gray" d="M697.5,187.5A6,6,0,1,1,685.5,187.5A6,6,0,1,1,697.5,187.5"></path><path id="kity_path_117" fill="none" stroke="gray" d="M687,187.5L696,187.5"></path></g><path id="node_outline12" fill="rgb(238, 243, 246)" stroke="rgb(115, 161, 191)" d="M701.5,174.5h90a3,3,0,0,1,3,3v20a3,3,0,0,1,-3,3h-90a3,3,0,0,1,-3,-3v-20a3,3,0,0,1,3,-3z" stroke-width="1"></path><g id="node_text12" fill="black"><text id="kity_text_113" text-rendering="inherit" font-size="14" dy=".8em" y="180.5" x="718.5">字体系列</text></g></g><g id="minder_node13"><g id="node_expander12" style="cursor: pointer;"><path id="kity_path_132" fill="white" stroke="gray" d="M834.5,187.5A6,6,0,1,1,822.5,187.5A6,6,0,1,1,834.5,187.5"></path><path id="kity_path_133" fill="none" stroke="gray" d="M824,187.5L833,187.5"></path></g><path id="node_outline13" fill="none" stroke="none" d="M839.5,176.5h71a5,5,0,0,1,5,5v12a5,5,0,0,1,-5,5h-71a5,5,0,0,1,-5,-5v-12a5,5,0,0,1,5,-5z" stroke-width="3"></path><g id="node_text13" fill="black"><text id="kity_text_129" text-rendering="inherit" font-size="12" dy=".8em" y="181.5" x="844.5">font-family</text></g></g><g id="minder_node3"><g id="node_expander2" style="cursor: pointer;" display="none"><path id="kity_path_44" fill="white" stroke="gray" d="M1063.5,31.5A6,6,0,1,1,1051.5,31.5A6,6,0,1,1,1063.5,31.5"></path><path id="kity_path_45" fill="none" stroke="gray"></path></g><path id="node_outline3" fill="none" stroke="none" d="M1068.5,20.5h41a5,5,0,0,1,5,5v12a5,5,0,0,1,-5,5h-41a5,5,0,0,1,-5,-5v-12a5,5,0,0,1,5,-5z" stroke-width="3"></path><g id="node_text3" fill="black"><text id="kity_text_41" text-rendering="inherit" font-size="12" dy=".8em" y="25.5" x="1073.5">Times</text></g></g><g id="minder_node4"><g id="node_expander3" style="cursor: pointer;" display="none"><path id="kity_path_52" fill="white" stroke="gray" d="M1063.5,83.5A6,6,0,1,1,1051.5,83.5A6,6,0,1,1,1063.5,83.5"></path><path id="kity_path_53" fill="none" stroke="gray"></path></g><path id="node_outline4" fill="none" stroke="none" d="M1068.5,72.5h62a5,5,0,0,1,5,5v12a5,5,0,0,1,-5,5h-62a5,5,0,0,1,-5,-5v-12a5,5,0,0,1,5,-5z" stroke-width="3"></path><g id="node_text4" fill="black"><text id="kity_text_49" text-rendering="inherit" font-size="12" dy=".8em" y="77.5" x="1073.5">Verdana</text></g></g><g id="minder_node5"><g id="node_expander4" style="cursor: pointer;" display="none"><path id="kity_path_60" fill="white" stroke="gray" d="M1063.5,135.5A6,6,0,1,1,1051.5,135.5A6,6,0,1,1,1063.5,135.5"></path><path id="kity_path_61" fill="none" stroke="gray"></path></g><path id="node_outline5" fill="none" stroke="none" d="M1068.5,124.5h20a5,5,0,0,1,5,5v12a5,5,0,0,1,-5,5h-20a5,5,0,0,1,-5,-5v-12a5,5,0,0,1,5,-5z" stroke-width="3"></path><g id="node_text5" fill="black"><text id="kity_text_57" text-rendering="inherit" font-size="12" dy=".8em" y="129.5" x="1073.5">...</text></g></g><g id="minder_node7"><g id="node_expander6" style="cursor: pointer;" display="none"><path id="kity_path_76" fill="white" stroke="gray" d="M1063.5,187.5A6,6,0,1,1,1051.5,187.5A6,6,0,1,1,1063.5,187.5"></path><path id="kity_path_77" fill="none" stroke="gray"></path></g><path id="node_outline7" fill="none" stroke="none" d="M1068.5,176.5h34a5,5,0,0,1,5,5v12a5,5,0,0,1,-5,5h-34a5,5,0,0,1,-5,-5v-12a5,5,0,0,1,5,-5z" stroke-width="3"></path><g id="node_text7" fill="black"><text id="kity_text_73" text-rendering="inherit" font-size="12" dy=".8em" y="181.5" x="1073.5">Serif</text></g></g><g id="minder_node8"><g id="node_expander7" style="cursor: pointer;" display="none"><path id="kity_path_84" fill="white" stroke="gray" d="M1063.5,239.5A6,6,0,1,1,1051.5,239.5A6,6,0,1,1,1063.5,239.5"></path><path id="kity_path_85" fill="none" stroke="gray"></path></g><path id="node_outline8" fill="none" stroke="none" d="M1068.5,228.5h62a5,5,0,0,1,5,5v12a5,5,0,0,1,-5,5h-62a5,5,0,0,1,-5,-5v-12a5,5,0,0,1,5,-5z" stroke-width="3"></path><g id="node_text8" fill="black"><text id="kity_text_81" text-rendering="inherit" font-size="12" dy=".8em" y="233.5" x="1073.5">Sans-serif</text></g></g><g id="minder_node9"><g id="node_expander8" style="cursor: pointer;" display="none"><path id="kity_path_92" fill="white" stroke="gray" d="M1063.5,291.5A6,6,0,1,1,1051.5,291.5A6,6,0,1,1,1063.5,291.5"></path><path id="kity_path_93" fill="none" stroke="gray"></path></g><path id="node_outline9" fill="none" stroke="none" d="M1068.5,280.5h81a5,5,0,0,1,5,5v12a5,5,0,0,1,-5,5h-81a5,5,0,0,1,-5,-5v-12a5,5,0,0,1,5,-5z" stroke-width="3"></path><g id="node_text9" fill="black"><text id="kity_text_89" text-rendering="inherit" font-size="12" dy=".8em" y="285.5" x="1073.5">Monospace</text></g></g><g id="minder_node10"><g id="node_expander9" style="cursor: pointer;" display="none"><path id="kity_path_100" fill="white" stroke="gray" d="M1063.5,343.5A6,6,0,1,1,1051.5,343.5A6,6,0,1,1,1063.5,343.5"></path><path id="kity_path_101" fill="none" stroke="gray"></path></g><path id="node_outline10" fill="none" stroke="none" d="M1068.5,332.5h52a5,5,0,0,1,5,5v12a5,5,0,0,1,-5,5h-52a5,5,0,0,1,-5,-5v-12a5,5,0,0,1,5,-5z" stroke-width="3"></path><g id="node_text10" fill="black"><text id="kity_text_97" text-rendering="inherit" font-size="12" dy=".8em" y="337.5" x="1073.5">Cursive</text></g></g><g id="minder_node11"><g id="node_expander10" style="cursor: pointer;" display="none"><path id="kity_path_108" fill="white" stroke="gray" d="M1063.5,395.5A6,6,0,1,1,1051.5,395.5A6,6,0,1,1,1063.5,395.5"></path><path id="kity_path_109" fill="none" stroke="gray"></path></g><path id="node_outline11" fill="none" stroke="none" d="M1068.5,384.5h55a5,5,0,0,1,5,5v12a5,5,0,0,1,-5,5h-55a5,5,0,0,1,-5,-5v-12a5,5,0,0,1,5,-5z" stroke-width="3"></path><g id="node_text11" fill="black"><text id="kity_text_105" text-rendering="inherit" font-size="12" dy=".8em" y="389.5" x="1073.5">Fantasy</text></g></g><g id="minder_node14"><g id="node_expander13" style="cursor: pointer;"><path id="kity_path_148" fill="white" stroke="gray" d="M697.5,459.5A6,6,0,1,1,685.5,459.5A6,6,0,1,1,697.5,459.5"></path><path id="kity_path_149" fill="none" stroke="gray" d="M687,459.5L696,459.5"></path></g><path id="node_outline14" fill="rgb(238, 243, 246)" stroke="rgb(115, 161, 191)" d="M701.5,446.5h90a3,3,0,0,1,3,3v20a3,3,0,0,1,-3,3h-90a3,3,0,0,1,-3,-3v-20a3,3,0,0,1,3,-3z" stroke-width="1"></path><g id="node_text14" fill="black"><text id="kity_text_145" text-rendering="inherit" font-size="14" dy=".8em" y="452.5" x="718.5">字体加粗</text></g></g><g id="minder_node15"><g id="node_expander14" style="cursor: pointer;" display="none"><path id="kity_path_156" fill="white" stroke="gray" d="M834.5,459.5A6,6,0,1,1,822.5,459.5A6,6,0,1,1,834.5,459.5"></path><path id="kity_path_157" fill="none" stroke="gray"></path></g><path id="node_outline15" fill="none" stroke="none" d="M839.5,448.5h77a5,5,0,0,1,5,5v12a5,5,0,0,1,-5,5h-77a5,5,0,0,1,-5,-5v-12a5,5,0,0,1,5,-5z" stroke-width="3"></path><g id="node_text15" fill="black"><text id="kity_text_153" text-rendering="inherit" font-size="12" dy=".8em" y="453.5" x="844.5">font-weight</text></g></g><g id="minder_node16"><g id="node_expander15" style="cursor: pointer;"><path id="kity_path_164" fill="white" stroke="gray" d="M697.5,525.5A6,6,0,1,1,685.5,525.5A6,6,0,1,1,697.5,525.5"></path><path id="kity_path_165" fill="none" stroke="gray" d="M687,525.5L696,525.5"></path></g><path id="node_outline16" fill="rgb(238, 243, 246)" stroke="rgb(115, 161, 191)" d="M701.5,512.5h90a3,3,0,0,1,3,3v20a3,3,0,0,1,-3,3h-90a3,3,0,0,1,-3,-3v-20a3,3,0,0,1,3,-3z" stroke-width="1"></path><g id="node_text16" fill="black"><text id="kity_text_161" text-rendering="inherit" font-size="14" dy=".8em" y="518.5" x="718.5">字体大小</text></g></g><g id="minder_node17"><g id="node_expander16" style="cursor: pointer;" display="none"><path id="kity_path_172" fill="white" stroke="gray" d="M834.5,525.5A6,6,0,1,1,822.5,525.5A6,6,0,1,1,834.5,525.5"></path><path id="kity_path_173" fill="none" stroke="gray"></path></g><path id="node_outline17" fill="none" stroke="none" d="M839.5,514.5h57a5,5,0,0,1,5,5v12a5,5,0,0,1,-5,5h-57a5,5,0,0,1,-5,-5v-12a5,5,0,0,1,5,-5z" stroke-width="3"></path><g id="node_text17" fill="black"><text id="kity_text_169" text-rendering="inherit" font-size="12" dy=".8em" y="519.5" x="844.5">font-size</text></g></g><g id="minder_node19"><g id="node_expander18" style="cursor: pointer;"><path id="kity_path_188" fill="white" stroke="gray" d="M391.5,176.5A6,6,0,1,1,379.5,176.5A6,6,0,1,1,391.5,176.5"></path><path id="kity_path_189" fill="none" stroke="gray" d="M381,176.5L390,176.5"></path></g><path id="node_outline19" fill="rgb(238, 243, 246)" stroke="rgb(115, 161, 191)" d="M285.5,163.5h90a3,3,0,0,1,3,3v20a3,3,0,0,1,-3,3h-90a3,3,0,0,1,-3,-3v-20a3,3,0,0,1,3,-3z" stroke-width="1"></path><g id="node_text19" fill="black"><text id="kity_text_185" text-rendering="inherit" font-size="14" dy=".8em" y="169.5" x="302.5">字体风格</text></g></g><g id="minder_node20"><g id="node_expander19" style="cursor: pointer;"><path id="kity_path_196" fill="white" stroke="gray" d="M254.5,176.5A6,6,0,1,1,242.5,176.5A6,6,0,1,1,254.5,176.5"></path><path id="kity_path_197" fill="none" stroke="gray" d="M244,176.5L253,176.5"></path></g><path id="node_outline20" fill="none" stroke="none" d="M175.5,165.5h62a5,5,0,0,1,5,5v12a5,5,0,0,1,-5,5h-62a5,5,0,0,1,-5,-5v-12a5,5,0,0,1,5,-5z" stroke-width="3"></path><g id="node_text20" fill="black"><text id="kity_text_193" text-rendering="inherit" font-size="12" dy=".8em" y="170.5" x="180.5">font-style</text></g></g><g id="minder_node21"><g id="node_expander20" style="cursor: pointer;" display="none"><path id="kity_path_204" fill="white" stroke="gray" d="M142.5,98.5A6,6,0,1,1,130.5,98.5A6,6,0,1,1,142.5,98.5"></path><path id="kity_path_205" fill="none" stroke="gray"></path></g><path id="node_outline21" fill="none" stroke="none" d="M74.5,87.5h51a5,5,0,0,1,5,5v12a5,5,0,0,1,-5,5h-51a5,5,0,0,1,-5,-5v-12a5,5,0,0,1,5,-5z" stroke-width="3"></path><g id="node_text21" fill="black"><text id="kity_text_201" text-rendering="inherit" font-size="12" dy=".8em" y="92.5" x="79.5">normal</text></g></g><g id="minder_node22"><g id="node_expander21" style="cursor: pointer;" display="none"><path id="kity_path_212" fill="white" stroke="gray" d="M142.5,150.5A6,6,0,1,1,130.5,150.5A6,6,0,1,1,142.5,150.5"></path><path id="kity_path_213" fill="none" stroke="gray"></path></g><path id="node_outline22" fill="none" stroke="none" d="M71.5,139.5h54a5,5,0,0,1,5,5v12a5,5,0,0,1,-5,5h-54a5,5,0,0,1,-5,-5v-12a5,5,0,0,1,5,-5z" stroke-width="3"></path><g id="node_text22" fill="black"><text id="kity_text_209" text-rendering="inherit" font-size="12" dy=".8em" y="144.5" x="76.5">oblique</text></g></g><g id="minder_node23"><g id="node_expander22" style="cursor: pointer;" display="none"><path id="kity_path_220" fill="white" stroke="gray" d="M142.5,202.5A6,6,0,1,1,130.5,202.5A6,6,0,1,1,142.5,202.5"></path><path id="kity_path_221" fill="none" stroke="gray"></path></g><path id="node_outline23" fill="none" stroke="none" d="M88.5,191.5h37a5,5,0,0,1,5,5v12a5,5,0,0,1,-5,5h-37a5,5,0,0,1,-5,-5v-12a5,5,0,0,1,5,-5z" stroke-width="3"></path><g id="node_text23" fill="black"><text id="kity_text_217" text-rendering="inherit" font-size="12" dy=".8em" y="196.5" x="93.5">italic</text></g></g><g id="minder_node24"><g id="node_expander23" style="cursor: pointer;" display="none"><path id="kity_path_228" fill="white" stroke="gray" d="M142.5,254.5A6,6,0,1,1,130.5,254.5A6,6,0,1,1,142.5,254.5"></path><path id="kity_path_229" fill="none" stroke="gray"></path></g><path id="node_outline24" fill="none" stroke="none" d="M80.5,243.5h45a5,5,0,0,1,5,5v12a5,5,0,0,1,-5,5h-45a5,5,0,0,1,-5,-5v-12a5,5,0,0,1,5,-5z" stroke-width="3"></path><g id="node_text24" fill="black"><text id="kity_text_225" text-rendering="inherit" font-size="12" dy=".8em" y="248.5" x="85.5">inherit</text></g></g><g id="minder_node25"><g id="node_expander24" style="cursor: pointer;"><path id="kity_path_236" fill="white" stroke="gray" d="M391.5,394.5A6,6,0,1,1,379.5,394.5A6,6,0,1,1,391.5,394.5"></path><path id="kity_path_237" fill="none" stroke="gray" d="M381,394.5L390,394.5"></path></g><path id="node_outline25" fill="rgb(238, 243, 246)" stroke="rgb(115, 161, 191)" d="M285.5,381.5h90a3,3,0,0,1,3,3v20a3,3,0,0,1,-3,3h-90a3,3,0,0,1,-3,-3v-20a3,3,0,0,1,3,-3z" stroke-width="1"></path><g id="node_text25" fill="black"><text id="kity_text_233" text-rendering="inherit" font-size="14" dy=".8em" y="387.5" x="302.5">字体变形</text></g></g><g id="minder_node26" opacity="1"><g id="node_expander25" style="cursor: pointer;" display="none"><path id="kity_path_244" fill="white" stroke="gray" d="M123.5,472.5A6,6,0,1,1,111.5,472.5A6,6,0,1,1,123.5,472.5"></path><path id="kity_path_245" fill="none" stroke="gray"></path></g><path id="node_outline26" fill="none" stroke="none" d="M34.5,461.5h72a5,5,0,0,1,5,5v12a5,5,0,0,1,-5,5h-72a5,5,0,0,1,-5,-5v-12a5,5,0,0,1,5,-5z" stroke-width="3"></path><g id="node_text26" fill="black"><text id="kity_text_241" text-rendering="inherit" font-size="12" dy=".8em" y="466.5" x="39.5">small-caps </text></g></g><g id="minder_node27" opacity="1"><g id="node_expander26" style="cursor: pointer;" display="none"><path id="kity_path_252" fill="white" stroke="gray" d="M123.5,420.5A6,6,0,1,1,111.5,420.5A6,6,0,1,1,123.5,420.5"></path><path id="kity_path_253" fill="none" stroke="gray"></path></g><path id="node_outline27" fill="none" stroke="none" d="M25.5,409.5h81a5,5,0,0,1,5,5v12a5,5,0,0,1,-5,5h-81a5,5,0,0,1,-5,-5v-12a5,5,0,0,1,5,-5z" stroke-width="3"></path><g id="node_text27" fill="black"><text id="kity_text_249" text-rendering="inherit" font-size="12" dy=".8em" y="414.5" x="30.5">font-vaniant</text></g></g><g id="minder_node28" opacity="1"><g id="node_expander27" style="cursor: pointer;" display="none"><path id="kity_path_260" fill="white" stroke="gray" d="M123.5,368.5A6,6,0,1,1,111.5,368.5A6,6,0,1,1,123.5,368.5"></path><path id="kity_path_261" fill="none" stroke="gray"></path></g><path id="node_outline28" fill="none" stroke="none" d="M55.5,357.5h51a5,5,0,0,1,5,5v12a5,5,0,0,1,-5,5h-51a5,5,0,0,1,-5,-5v-12a5,5,0,0,1,5,-5z" stroke-width="3"></path><g id="node_text28" fill="black"><text id="kity_text_257" text-rendering="inherit" font-size="12" dy=".8em" y="362.5" x="60.5">normal</text></g></g><g id="minder_node29" opacity="1"><g id="node_expander28" style="cursor: pointer;" display="none"><path id="kity_path_268" fill="white" stroke="gray" d="M123.5,316.5A6,6,0,1,1,111.5,316.5A6,6,0,1,1,123.5,316.5"></path><path id="kity_path_269" fill="none" stroke="gray"></path></g><path id="node_outline29" fill="none" stroke="none" d="M61.5,305.5h45a5,5,0,0,1,5,5v12a5,5,0,0,1,-5,5h-45a5,5,0,0,1,-5,-5v-12a5,5,0,0,1,5,-5z" stroke-width="3"></path><g id="node_text29" fill="black"><text id="kity_text_265" text-rendering="inherit" font-size="12" dy=".8em" y="310.5" x="66.5">inherit</text></g></g><g id="minder_node30"><g id="node_expander29" style="cursor: pointer;"><path id="kity_path_276" fill="white" stroke="gray" d="M254.5,394.5A6,6,0,1,1,242.5,394.5A6,6,0,1,1,254.5,394.5"></path><path id="kity_path_277" fill="none" stroke="gray" d="M244,394.5L253,394.5"></path></g><path id="node_outline30" fill="none" stroke="none" d="M156.5,383.5h81a5,5,0,0,1,5,5v12a5,5,0,0,1,-5,5h-81a5,5,0,0,1,-5,-5v-12a5,5,0,0,1,5,-5z" stroke-width="3"></path><g id="node_text30" fill="black"><text id="kity_text_273" text-rendering="inherit" font-size="12" dy=".8em" y="388.5" x="161.5">font-vaniant</text></g></g><g id="kity_g_12" display="none"><path id="kity_path_13" fill="none" stroke="rgb(66, 94, 112)" d="M156.5,493.5h81a5,5,0,0,1,5,5v12a5,5,0,0,1,-5,5h-81a5,5,0,0,1,-5,-5v-12a5,5,0,0,1,5,-5z" stroke-width="5"></path></g><g id="minder_node31"><g id="node_expander30" style="cursor: pointer;"><path id="kity_path_284" fill="white" stroke="gray" d="M391.5,536.5A6,6,0,1,1,379.5,536.5A6,6,0,1,1,391.5,536.5"></path><path id="kity_path_285" fill="none" stroke="gray" d="M381,536.5L390,536.5"></path></g><path id="node_outline31" fill="rgb(238, 243, 246)" stroke="rgb(115, 161, 191)" d="M285.5,523.5h90a3,3,0,0,1,3,3v20a3,3,0,0,1,-3,3h-90a3,3,0,0,1,-3,-3v-20a3,3,0,0,1,3,-3z" stroke-width="1"></path><g id="node_text31" fill="black"><text id="kity_text_281" text-rendering="inherit" font-size="14" dy=".8em" y="529.5" x="302.5">字体拉伸</text></g></g><g id="minder_node32"><g id="node_expander31" style="cursor: pointer;" display="none"><path id="kity_path_292" fill="white" stroke="gray" d="M254.5,536.5A6,6,0,1,1,242.5,536.5A6,6,0,1,1,254.5,536.5"></path><path id="kity_path_293" fill="none" stroke="gray"></path></g><path id="node_outline32" fill="none" stroke="rgb(57, 80, 96)" d="M157.5,525.5h80a5,5,0,0,1,5,5v12a5,5,0,0,1,-5,5h-80a5,5,0,0,1,-5,-5v-12a5,5,0,0,1,5,-5z" stroke-width="3"></path><g id="node_text32" fill="black"><text id="kity_text_289" text-rendering="inherit" font-size="12" dy=".8em" y="530.5" x="162.5">font-streach</text></g></g></g></g></svg>