<svg id="kity_svg_6" xmlns="http://www.w3.org/2000/svg" xmlns:xlink="http://www.w3.org/1999/xlink" version="1.1" width="1050" height="379" style="background: rgb(251, 251, 251); visibility: visible;" viewBox="0 0 1050 379"><defs id="kity_defs_7"><linearGradient id="kity_linearGradient_17" x1="0" y1="0" x2="0" y2="1"><stop id="kity_stop_18" offset="0" stop-color="rgb(255, 255, 255)"></stop><stop id="kity_stop_19" offset="1" stop-color="rgb(204, 204, 204)"></stop></linearGradient><marker id="kity_marker_2" orient="auto" refX="6" refY="0" viewBox="-7 -7 14 14" markerWidth="7" markerHeight="7" markerUnits="userSpaceOnUse"><path id="kity_path_3" fill="rgb(115, 161, 191)" stroke="none" d="M6,0A6,6,0,1,1,-6,0A6,6,0,1,1,6,0"></path></marker></defs><g id="kity_g_8"><g id="minder1" text-rendering="optimize-speed"><g id="minder_connect_group1"><path id="kity_path_31" fill="none" stroke="rgb(115, 161, 191)" stroke-width="1" d="M443.5,189.5A174,156,0,0,1,617.5,33.5"></path><path id="kity_path_33" fill="none" stroke="rgb(115, 161, 191)" stroke-width="1" d="M715.5,33.5C730.5,33.5,730.5,47.5,745.5,47.5L838.5,47.5"></path><path id="kity_path_35" fill="none" stroke="rgb(115, 161, 191)" stroke-width="1" d="M838.5,47.5C853.5,47.5,853.5,47.5,868.5,47.5L982.5,47.5"></path><path id="kity_path_37" fill="none" stroke="rgb(115, 161, 191)" stroke-width="1" d="M443.5,189.5A174,90,0,0,1,617.5,99.5"></path><path id="kity_path_39" fill="none" stroke="rgb(115, 161, 191)" stroke-width="1" d="M715.5,99.5C730.5,99.5,730.5,113.5,745.5,113.5L829.5,113.5"></path><path id="kity_path_41" fill="none" stroke="rgb(115, 161, 191)" stroke-width="1" d="M829.5,113.5C844.5,113.5,844.5,113.5,859.5,113.5L973.5,113.5"></path><path id="kity_path_79" fill="none" stroke="rgb(115, 161, 191)" stroke-width="1" d="M443.5,189.5A174,0,0,0,1,617.5,189.5"></path><path id="kity_path_87" fill="none" stroke="rgb(115, 161, 191)" stroke-width="1" d="M715.5,189.5C730.5,189.5,730.5,177.5,745.5,177.5L799.5,177.5"></path><path id="kity_path_95" fill="none" stroke="rgb(115, 161, 191)" stroke-width="1" d="M799.5,177.5C814.5,177.5,814.5,177.5,829.5,177.5L920.5,177.5"></path><path id="kity_path_103" fill="none" stroke="rgb(115, 161, 191)" stroke-width="1" d="M715.5,189.5C730.5,189.5,730.5,229.5,745.5,229.5L895.5,229.5"></path><path id="kity_path_111" fill="none" stroke="rgb(115, 161, 191)" stroke-width="1" d="M895.5,229.5C910.5,229.5,910.5,229.5,925.5,229.5L1030.5,229.5"></path><path id="kity_path_119" fill="none" stroke="rgb(115, 161, 191)" stroke-width="1" d="M443.5,189.5A174,90,0,0,0,617.5,279.5"></path><path id="kity_path_127" fill="none" stroke="rgb(115, 161, 191)" stroke-width="1" d="M701.5,279.5C716.5,279.5,716.5,293.5,731.5,293.5L841.5,293.5"></path><path id="kity_path_135" fill="none" stroke="rgb(115, 161, 191)" stroke-width="1" d="M443.5,189.5A174,156,0,0,0,617.5,345.5"></path><path id="kity_path_143" fill="none" stroke="rgb(115, 161, 191)" stroke-width="1" d="M715.5,345.5C730.5,345.5,730.5,359.5,745.5,359.5L855.5,359.5"></path><path id="kity_path_151" fill="none" stroke="rgb(115, 161, 191)" stroke-width="1" d="M443.5,189.5A174,99,0,0,0,269.5,90.5"></path><path id="kity_path_159" fill="none" stroke="rgb(115, 161, 191)" stroke-width="1" d="M171.5,90.5C156.5,90.5,156.5,104.5,141.5,104.5L31.5,104.5"></path><path id="kity_path_167" fill="none" stroke="rgb(115, 161, 191)" stroke-width="1" d="M443.5,189.5A174,33,0,0,0,269.5,156.5"></path><path id="kity_path_175" fill="none" stroke="rgb(115, 161, 191)" stroke-width="1" d="M171.5,156.5C156.5,156.5,156.5,170.5,141.5,170.5L20.5,170.5"></path><path id="kity_path_183" fill="none" stroke="rgb(115, 161, 191)" stroke-width="1" d="M443.5,189.5A174,33,0,0,1,269.5,222.5"></path><path id="kity_path_191" fill="none" stroke="rgb(115, 161, 191)" stroke-width="1" d="M171.5,222.5C156.5,222.5,156.5,236.5,141.5,236.5L39.5,236.5"></path><path id="kity_path_199" fill="none" stroke="rgb(115, 161, 191)" stroke-width="1" d="M443.5,189.5A174,99,0,0,1,269.5,288.5"></path><path id="kity_path_207" fill="none" stroke="rgb(115, 161, 191)" stroke-width="1" d="M171.5,288.5C156.5,288.5,156.5,302.5,141.5,302.5L60.5,302.5"></path></g><g id="minder_node1"><path id="node_outline1" fill="rgb(115, 161, 191)" stroke="rgb(115, 161, 191)" d="M392.5,169.5h102a5,5,0,0,1,5,5v30a5,5,0,0,1,-5,5h-102a5,5,0,0,1,-5,-5v-30a5,5,0,0,1,5,-5z" stroke-width="3"></path><g id="node_text1" fill="white"><text id="kity_text_22" text-rendering="inherit" font-size="16" dy=".8em" y="181.5" x="411.5">文本属性</text></g></g><g id="kity_g_12"><path id="kity_path_13" fill="none" stroke="none" d="M411.5,189.5h0v0h0z"></path></g><g id="kity_g_14"><path id="kity_path_15" fill="none" stroke="none" d="M411.5,189.5h0v0h0z"></path><path id="kity_path_16" fill="none" stroke="none"></path></g><g id="minder_node2"><g id="node_expander3" style="cursor: pointer;"><path id="kity_path_67" fill="white" stroke="gray" d="M618.5,33.5A6,6,0,1,1,606.5,33.5A6,6,0,1,1,618.5,33.5"></path><path id="kity_path_68" fill="none" stroke="gray" d="M608,33.5L617,33.5"></path></g><path id="node_outline4" fill="rgb(238, 243, 246)" stroke="rgb(115, 161, 191)" d="M622.5,20.5h90a3,3,0,0,1,3,3v20a3,3,0,0,1,-3,3h-90a3,3,0,0,1,-3,-3v-20a3,3,0,0,1,3,-3z" stroke-width="1"></path><g id="node_text4" fill="black"><text id="kity_text_47" text-rendering="inherit" font-size="14" dy=".8em" y="26.5" x="639.5">缩进文本</text></g></g><g id="minder_node3"><g id="node_expander2" style="cursor: pointer;"><path id="kity_path_64" fill="white" stroke="gray" d="M755.5,33.5A6,6,0,1,1,743.5,33.5A6,6,0,1,1,755.5,33.5"></path><path id="kity_path_65" fill="none" stroke="gray" d="M745,33.5L754,33.5"></path></g><path id="node_outline3" fill="none" stroke="none" d="M760.5,22.5h73a5,5,0,0,1,5,5v12a5,5,0,0,1,-5,5h-73a5,5,0,0,1,-5,-5v-12a5,5,0,0,1,5,-5z"></path><g id="node_text3" fill="black"><text id="kity_text_45" text-rendering="inherit" font-size="12" dy=".8em" y="27.5" x="765.5">text-indent</text></g></g><g id="minder_node4"><g id="node_expander1" style="cursor: pointer;" display="none"><path id="kity_path_61" fill="white" stroke="gray" d="M878.5,33.5A6,6,0,1,1,866.5,33.5A6,6,0,1,1,878.5,33.5"></path><path id="kity_path_62" fill="none" stroke="gray"></path></g><path id="node_outline2" fill="none" stroke="none" d="M883.5,22.5h94a5,5,0,0,1,5,5v12a5,5,0,0,1,-5,5h-94a5,5,0,0,1,-5,-5v-12a5,5,0,0,1,5,-5z"></path><g id="node_text2" fill="black"><text id="kity_text_43" text-rendering="inherit" font-size="12" dy=".8em" y="27.5" x="888.5">应用于块级元素</text></g></g><g id="minder_node5"><g id="node_expander6" style="cursor: pointer;"><path id="kity_path_76" fill="white" stroke="gray" d="M618.5,99.5A6,6,0,1,1,606.5,99.5A6,6,0,1,1,618.5,99.5"></path><path id="kity_path_77" fill="none" stroke="gray" d="M608,99.5L617,99.5"></path></g><path id="node_outline7" fill="rgb(238, 243, 246)" stroke="rgb(115, 161, 191)" d="M622.5,86.5h90a3,3,0,0,1,3,3v20a3,3,0,0,1,-3,3h-90a3,3,0,0,1,-3,-3v-20a3,3,0,0,1,3,-3z" stroke-width="1"></path><g id="node_text7" fill="black"><text id="kity_text_53" text-rendering="inherit" font-size="14" dy=".8em" y="92.5" x="639.5">文本对齐</text></g></g><g id="minder_node6"><g id="node_expander5" style="cursor: pointer;"><path id="kity_path_73" fill="white" stroke="gray" d="M755.5,99.5A6,6,0,1,1,743.5,99.5A6,6,0,1,1,755.5,99.5"></path><path id="kity_path_74" fill="none" stroke="gray" d="M745,99.5L754,99.5"></path></g><path id="node_outline6" fill="none" stroke="none" d="M760.5,88.5h64a5,5,0,0,1,5,5v12a5,5,0,0,1,-5,5h-64a5,5,0,0,1,-5,-5v-12a5,5,0,0,1,5,-5z"></path><g id="node_text6" fill="black"><text id="kity_text_51" text-rendering="inherit" font-size="12" dy=".8em" y="93.5" x="765.5">text-align</text></g></g><g id="minder_node7"><g id="node_expander4" style="cursor: pointer;" display="none"><path id="kity_path_70" fill="white" stroke="gray" d="M869.5,99.5A6,6,0,1,1,857.5,99.5A6,6,0,1,1,869.5,99.5"></path><path id="kity_path_71" fill="none" stroke="gray"></path></g><path id="node_outline5" fill="none" stroke="none" d="M874.5,88.5h94a5,5,0,0,1,5,5v12a5,5,0,0,1,-5,5h-94a5,5,0,0,1,-5,-5v-12a5,5,0,0,1,5,-5z"></path><g id="node_text5" fill="black"><text id="kity_text_49" text-rendering="inherit" font-size="12" dy=".8em" y="93.5" x="879.5">应用于块级元素</text></g></g><g id="minder_node8"><g id="node_expander7" style="cursor: pointer;"><path id="kity_path_84" fill="white" stroke="gray" d="M618.5,189.5A6,6,0,1,1,606.5,189.5A6,6,0,1,1,618.5,189.5"></path><path id="kity_path_85" fill="none" stroke="gray" d="M608,189.5L617,189.5"></path></g><path id="node_outline8" fill="rgb(238, 243, 246)" stroke="rgb(115, 161, 191)" d="M622.5,176.5h90a3,3,0,0,1,3,3v20a3,3,0,0,1,-3,3h-90a3,3,0,0,1,-3,-3v-20a3,3,0,0,1,3,-3z" stroke-width="1"></path><g id="node_text8" fill="black"><text id="kity_text_81" text-rendering="inherit" font-size="14" dy=".8em" y="182.5" x="639.5">垂直对齐</text></g></g><g id="minder_node9"><g id="node_expander8" style="cursor: pointer;"><path id="kity_path_92" fill="white" stroke="gray" d="M755.5,163.5A6,6,0,1,1,743.5,163.5A6,6,0,1,1,755.5,163.5"></path><path id="kity_path_93" fill="none" stroke="gray" d="M745,163.5L754,163.5"></path></g><path id="node_outline9" fill="none" stroke="none" d="M760.5,152.5h34a5,5,0,0,1,5,5v12a5,5,0,0,1,-5,5h-34a5,5,0,0,1,-5,-5v-12a5,5,0,0,1,5,-5z" stroke-width="3"></path><g id="node_text9" fill="black"><text id="kity_text_89" text-rendering="inherit" font-size="12" dy=".8em" y="157.5" x="765.5">行高</text></g></g><g id="minder_node10"><g id="node_expander9" style="cursor: pointer;" display="none"><path id="kity_path_100" fill="white" stroke="gray" d="M839.5,163.5A6,6,0,1,1,827.5,163.5A6,6,0,1,1,839.5,163.5"></path><path id="kity_path_101" fill="none" stroke="gray"></path></g><path id="node_outline10" fill="none" stroke="none" d="M844.5,152.5h71a5,5,0,0,1,5,5v12a5,5,0,0,1,-5,5h-71a5,5,0,0,1,-5,-5v-12a5,5,0,0,1,5,-5z" stroke-width="3"></path><g id="node_text10" fill="black"><text id="kity_text_97" text-rendering="inherit" font-size="12" dy=".8em" y="157.5" x="849.5">line-height</text></g></g><g id="minder_node11"><g id="node_expander10" style="cursor: pointer;"><path id="kity_path_108" fill="white" stroke="gray" d="M755.5,215.5A6,6,0,1,1,743.5,215.5A6,6,0,1,1,755.5,215.5"></path><path id="kity_path_109" fill="none" stroke="gray" d="M745,215.5L754,215.5"></path></g><path id="node_outline11" fill="none" stroke="none" d="M760.5,204.5h130a5,5,0,0,1,5,5v12a5,5,0,0,1,-5,5h-130a5,5,0,0,1,-5,-5v-12a5,5,0,0,1,5,-5z" stroke-width="3"></path><g id="node_text11" fill="black"><text id="kity_text_105" text-rendering="inherit" font-size="12" dy=".8em" y="209.5" x="765.5">垂直文本对齐（基线）</text></g></g><g id="minder_node12"><g id="node_expander11" style="cursor: pointer;" display="none"><path id="kity_path_116" fill="white" stroke="gray" d="M935.5,215.5A6,6,0,1,1,923.5,215.5A6,6,0,1,1,935.5,215.5"></path><path id="kity_path_117" fill="none" stroke="gray"></path></g><path id="node_outline12" fill="none" stroke="none" d="M940.5,204.5h85a5,5,0,0,1,5,5v12a5,5,0,0,1,-5,5h-85a5,5,0,0,1,-5,-5v-12a5,5,0,0,1,5,-5z" stroke-width="3"></path><g id="node_text12" fill="black"><text id="kity_text_113" text-rendering="inherit" font-size="12" dy=".8em" y="209.5" x="945.5">vertical-align</text></g></g><g id="minder_node13"><g id="node_expander12" style="cursor: pointer;"><path id="kity_path_124" fill="white" stroke="gray" d="M618.5,279.5A6,6,0,1,1,606.5,279.5A6,6,0,1,1,618.5,279.5"></path><path id="kity_path_125" fill="none" stroke="gray" d="M608,279.5L617,279.5"></path></g><path id="node_outline13" fill="rgb(238, 243, 246)" stroke="rgb(115, 161, 191)" d="M622.5,266.5h76a3,3,0,0,1,3,3v20a3,3,0,0,1,-3,3h-76a3,3,0,0,1,-3,-3v-20a3,3,0,0,1,3,-3z" stroke-width="1"></path><g id="node_text13" fill="black"><text id="kity_text_121" text-rendering="inherit" font-size="14" dy=".8em" y="272.5" x="639.5">字间隔</text></g></g><g id="minder_node14"><g id="node_expander13" style="cursor: pointer;" display="none"><path id="kity_path_132" fill="white" stroke="gray" d="M741.5,279.5A6,6,0,1,1,729.5,279.5A6,6,0,1,1,741.5,279.5"></path><path id="kity_path_133" fill="none" stroke="gray"></path></g><path id="node_outline14" fill="none" stroke="none" d="M746.5,268.5h90a5,5,0,0,1,5,5v12a5,5,0,0,1,-5,5h-90a5,5,0,0,1,-5,-5v-12a5,5,0,0,1,5,-5z" stroke-width="3"></path><g id="node_text14" fill="black"><text id="kity_text_129" text-rendering="inherit" font-size="12" dy=".8em" y="273.5" x="751.5">word-spacing</text></g></g><g id="minder_node15"><g id="node_expander14" style="cursor: pointer;"><path id="kity_path_140" fill="white" stroke="gray" d="M618.5,345.5A6,6,0,1,1,606.5,345.5A6,6,0,1,1,618.5,345.5"></path><path id="kity_path_141" fill="none" stroke="gray" d="M608,345.5L617,345.5"></path></g><path id="node_outline15" fill="rgb(238, 243, 246)" stroke="rgb(115, 161, 191)" d="M622.5,332.5h90a3,3,0,0,1,3,3v20a3,3,0,0,1,-3,3h-90a3,3,0,0,1,-3,-3v-20a3,3,0,0,1,3,-3z" stroke-width="1"></path><g id="node_text15" fill="black"><text id="kity_text_137" text-rendering="inherit" font-size="14" dy=".8em" y="338.5" x="639.5">字母间隔</text></g></g><g id="minder_node16"><g id="node_expander15" style="cursor: pointer;" display="none"><path id="kity_path_148" fill="white" stroke="gray" d="M755.5,345.5A6,6,0,1,1,743.5,345.5A6,6,0,1,1,755.5,345.5"></path><path id="kity_path_149" fill="none" stroke="gray"></path></g><path id="node_outline16" fill="none" stroke="none" d="M760.5,334.5h90a5,5,0,0,1,5,5v12a5,5,0,0,1,-5,5h-90a5,5,0,0,1,-5,-5v-12a5,5,0,0,1,5,-5z" stroke-width="3"></path><g id="node_text16" fill="black"><text id="kity_text_145" text-rendering="inherit" font-size="12" dy=".8em" y="339.5" x="765.5">letter-spacing</text></g></g><g id="minder_node17"><g id="node_expander16" style="cursor: pointer;"><path id="kity_path_156" fill="white" stroke="gray" d="M280.5,90.5A6,6,0,1,1,268.5,90.5A6,6,0,1,1,280.5,90.5"></path><path id="kity_path_157" fill="none" stroke="gray" d="M270,90.5L279,90.5"></path></g><path id="node_outline17" fill="rgb(238, 243, 246)" stroke="rgb(115, 161, 191)" d="M174.5,77.5h90a3,3,0,0,1,3,3v20a3,3,0,0,1,-3,3h-90a3,3,0,0,1,-3,-3v-20a3,3,0,0,1,3,-3z" stroke-width="1"></path><g id="node_text17" fill="black"><text id="kity_text_153" text-rendering="inherit" font-size="14" dy=".8em" y="83.5" x="191.5">文本转换</text></g></g><g id="minder_node18"><g id="node_expander17" style="cursor: pointer;" display="none"><path id="kity_path_164" fill="white" stroke="gray" d="M143.5,90.5A6,6,0,1,1,131.5,90.5A6,6,0,1,1,143.5,90.5"></path><path id="kity_path_165" fill="none" stroke="gray"></path></g><path id="node_outline18" fill="none" stroke="none" d="M36.5,79.5h90a5,5,0,0,1,5,5v12a5,5,0,0,1,-5,5h-90a5,5,0,0,1,-5,-5v-12a5,5,0,0,1,5,-5z" stroke-width="3"></path><g id="node_text18" fill="black"><text id="kity_text_161" text-rendering="inherit" font-size="12" dy=".8em" y="84.5" x="41.5">text-transform</text></g></g><g id="minder_node19"><g id="node_expander18" style="cursor: pointer;"><path id="kity_path_172" fill="white" stroke="gray" d="M280.5,156.5A6,6,0,1,1,268.5,156.5A6,6,0,1,1,280.5,156.5"></path><path id="kity_path_173" fill="none" stroke="gray" d="M270,156.5L279,156.5"></path></g><path id="node_outline19" fill="rgb(238, 243, 246)" stroke="rgb(115, 161, 191)" d="M174.5,143.5h90a3,3,0,0,1,3,3v20a3,3,0,0,1,-3,3h-90a3,3,0,0,1,-3,-3v-20a3,3,0,0,1,3,-3z" stroke-width="1"></path><g id="node_text19" fill="black"><text id="kity_text_169" text-rendering="inherit" font-size="14" dy=".8em" y="149.5" x="191.5">文本装饰</text></g></g><g id="minder_node20"><g id="node_expander19" style="cursor: pointer;" display="none"><path id="kity_path_180" fill="white" stroke="gray" d="M143.5,156.5A6,6,0,1,1,131.5,156.5A6,6,0,1,1,143.5,156.5"></path><path id="kity_path_181" fill="none" stroke="gray"></path></g><path id="node_outline20" fill="none" stroke="none" d="M25.5,145.5h101a5,5,0,0,1,5,5v12a5,5,0,0,1,-5,5h-101a5,5,0,0,1,-5,-5v-12a5,5,0,0,1,5,-5z" stroke-width="3"></path><g id="node_text20" fill="black"><text id="kity_text_177" text-rendering="inherit" font-size="12" dy=".8em" y="150.5" x="30.5">text-decoration</text></g></g><g id="minder_node21"><g id="node_expander20" style="cursor: pointer;"><path id="kity_path_188" fill="white" stroke="gray" d="M280.5,222.5A6,6,0,1,1,268.5,222.5A6,6,0,1,1,280.5,222.5"></path><path id="kity_path_189" fill="none" stroke="gray" d="M270,222.5L279,222.5"></path></g><path id="node_outline21" fill="rgb(238, 243, 246)" stroke="rgb(115, 161, 191)" d="M174.5,209.5h90a3,3,0,0,1,3,3v20a3,3,0,0,1,-3,3h-90a3,3,0,0,1,-3,-3v-20a3,3,0,0,1,3,-3z" stroke-width="1"></path><g id="node_text21" fill="black"><text id="kity_text_185" text-rendering="inherit" font-size="14" dy=".8em" y="215.5" x="191.5">文本阴影</text></g></g><g id="minder_node22"><g id="node_expander21" style="cursor: pointer;" display="none"><path id="kity_path_196" fill="white" stroke="gray" d="M143.5,222.5A6,6,0,1,1,131.5,222.5A6,6,0,1,1,143.5,222.5"></path><path id="kity_path_197" fill="none" stroke="gray"></path></g><path id="node_outline22" fill="none" stroke="none" d="M44.5,211.5h82a5,5,0,0,1,5,5v12a5,5,0,0,1,-5,5h-82a5,5,0,0,1,-5,-5v-12a5,5,0,0,1,5,-5z" stroke-width="3"></path><g id="node_text22" fill="black"><text id="kity_text_193" text-rendering="inherit" font-size="12" dy=".8em" y="216.5" x="49.5">text-shadow</text></g></g><g id="minder_node23"><g id="node_expander22" style="cursor: pointer;"><path id="kity_path_204" fill="white" stroke="gray" d="M280.5,288.5A6,6,0,1,1,268.5,288.5A6,6,0,1,1,280.5,288.5"></path><path id="kity_path_205" fill="none" stroke="gray" d="M270,288.5L279,288.5"></path></g><path id="node_outline23" fill="rgb(238, 243, 246)" stroke="rgb(115, 161, 191)" d="M174.5,275.5h90a3,3,0,0,1,3,3v20a3,3,0,0,1,-3,3h-90a3,3,0,0,1,-3,-3v-20a3,3,0,0,1,3,-3z" stroke-width="1"></path><g id="node_text23" fill="black"><text id="kity_text_201" text-rendering="inherit" font-size="14" dy=".8em" y="281.5" x="191.5">文本方向</text></g></g><g id="minder_node24"><g id="node_expander23" style="cursor: pointer;" display="none"><path id="kity_path_212" fill="white" stroke="gray" d="M143.5,288.5A6,6,0,1,1,131.5,288.5A6,6,0,1,1,143.5,288.5"></path><path id="kity_path_213" fill="none" stroke="gray"></path></g><path id="node_outline24" fill="none" stroke="rgb(57, 80, 96)" d="M65.5,277.5h61a5,5,0,0,1,5,5v12a5,5,0,0,1,-5,5h-61a5,5,0,0,1,-5,-5v-12a5,5,0,0,1,5,-5z" stroke-width="3"></path><g id="node_text24" fill="black"><text id="kity_text_209" text-rendering="inherit" font-size="12" dy=".8em" y="282.5" x="70.5">direction</text></g></g></g></g></svg>